<svg xmlns="http://www.w3.org/2000/svg" viewBox="0 0 749 601.1"><style>.st0{fill:#0f323d}.st3{fill:#dd6c4e}</style><g id="Brand_name_and_tagline"><path class="st0" d="M36.1 501c-12.2 0-32.2-11-32.2-24.7 0-21.9 17.8-58.4 33.7-58.4 12.1 0 30.7 12.4 30.7 22.1 0 19.8-14.2 61-32.2 61zm8.5-74.1c-13 0-26.2 33.8-26.2 51.8 0 7.8 6.7 13.5 11.8 13.5 14 0 24-37.8 24-54.4 0-5.8-3.6-10.9-9.6-10.9zm66.7 66c3.5 0 9.8-9 15.6-19.5 0 0 1.1-2.1 2.6-2.1s4 1.9 4 3.3-1.5 4.1-1.5 4.1c-6.4 11.7-13.3 22.3-21.8 22.3-5.3 0-15.8-4.9-15.8-10.2 0-7.5 6.6-26.2 6.6-30.7 0-2-2-4-3.5-4-2.5 0-9 2.9-10.8 7.4-3 7.7-8.4 31.4-9.1 34.8-.5 1.5-.8 2.7-2.6 2.7-2.7 0-9.6-2.9-9.6-6.1 0-3 8.9-38.5 11.3-46.5.7-1.6 2.2-2.5 4-2.5 2 0 7.5 6.9 7.5 6.9s11.5-6.9 17.6-6.9c3.5 0 9.8 4.8 9.8 9.1 0 5.5-7.3 28.3-7.3 34.5 0 1.7 2 3.4 3 3.4z"/><path class="st0" d="M146.9 447.2H157c.7 0 1.4.4 1.4 1.1 0 1.5-2.2 6.2-4.1 6.2h-9.4c-3.9 13.2-8.2 29.3-8.2 31.9 0 3.7 3.3 6.6 6.6 6.6 3.4 0 9.8-9 15.6-19.5 0 0 1.1-2.1 2.6-2.1s4 1.9 4 3.3-1.5 4.1-1.5 4.1c-6.4 11.7-13.3 22.3-21.9 22.3-8 0-19-5.5-19-11.3 0-3.2 4.2-20 8.2-35.2h-4c-.6 0-1.3-.5-1.3-1.2 0-1.4 2.1-6.1 4-6.1h3.3c2.2-8.2 4.1-15 4.9-17.5.5-1.6 1.5-2.6 2.5-2.6 2.3 0 10.1 4.4 10.1 6.6 0 .7-.2 2-.5 2.8l-3.4 10.6z"/><path class="st0" d="M219.2 471.3c1.5 0 4 1.9 4 3.3s-1.5 4.1-1.5 4.1c-6.4 11.7-13.3 22.3-21.8 22.3-5.3 0-15-4.4-15.9-7.7 0 0-7 7.7-13 7.7-5.4 0-15.1-7.4-15.1-13.7 0-15.4 13.9-41.3 24.6-41.3 9.4 0 15.3 7 15.3 7 3 0 10.1.8 10.1 3.7 0 4.1-8 23.5-8 32.9 0 1.5 2.1 3.3 3.2 3.3 3.5 0 9.8-9 15.6-19.5-.1 0 1-2.1 2.5-2.1zm-34.4-15.9c-5.9 0-15.2 21.6-15.2 31.9 0 2.7 2.1 4.7 4.1 4.7 2.3 0 8.2-4.1 11.5-10.9 2.3-4.9 6-19.1 6-22.3-.1-1.9-4.5-3.4-6.4-3.4z"/><path class="st0" d="M261.3 473.4s1.1-2.1 2.6-2.1 4 1.9 4 3.3-1.5 4.1-1.5 4.1c-6.4 11.7-13.3 22.3-21.8 22.3-5.3 0-14.6-4.4-14.6-9 0-9.1 6.2-25.9 6.2-31.2 0-1.3-4.7-2.2-4.7-2.2s-4.1 9.6-9.8 20.1c0 0-1.2 2.1-2.6 2.1-1.6 0-4.1-1.9-4.1-3.2 0-1.4 1.6-4.2 1.6-4.2 4.1-7.4 8.4-18.3 8.4-18.3s-4.9-3-4.9-7S225 435 228 435c3.4 0 9.4 3.7 9.4 6.4 0 2.5-1.8 5.4-1.8 8.4 0 2.9 14.9 4.1 14.9 9 0 3.9-6.8 25.3-6.8 31.9 0 1.3 1.1 2.1 2.1 2.1 3.4.1 9.8-8.9 15.5-19.4z"/><path class="st0" d="M267.7 448.5c.5-1.6 2.1-2.5 3.9-2.5 1.4 0 9.4 4.2 9.4 6.4 0 2.7-9.5 29-9.5 37.2 0 1.5 1.9 3.3 3 3.3 3.4 0 9.7-9 15.7-19.5 0 0 .9-2.1 2.5-2.1 1.5 0 4 1.9 4 3.3s-1.6 4.1-1.6 4.1c-6.3 11.7-13.3 22.3-21.8 22.3-5.3 0-15.8-4.9-15.8-10.2-.1-5.5 8.2-35.1 10.2-42.3zm5.6-12.7c0-4.4 2.7-12.1 6.6-12.1 2.9 0 8.1 2 8.1 4.9 0 4.4-2.8 12.1-6.6 12.1-2.9 0-8.1-2-8.1-4.9z"/><path class="st0" d="M312 446c9 0 21.8 8.5 21.8 15.8 0 13.5-10.9 39.2-24.2 39.2-8.2 0-21.6-7.7-21.6-16.1-.1-16.3 11.4-38.9 24-38.9zm-4.8 46.9c5.8 0 15.8-21.8 15.8-33.6 0-2.6-3.2-4.7-5.5-4.7-6 0-15.6 19.9-15.6 33 0 3 2.9 5.3 5.3 5.3zm98.4-66.3c-4.7 0-17.6 15.2-17.6 24.9 0 10.2 26.9 11.2 26.9 23.1 0 10.1-14.7 26.4-26.8 26.4-9.7 0-24-10.9-24-17.7 0-3.5 7.7-12.6 10.1-12.6 1.3 0 6.1 3.2 6.1 4.8 0 1.5-2.2 6.1-2.2 9.1 0 2.6 4.1 8.2 6.9 8.2 6.8 0 14.3-9.6 14.3-15.2 0-10.2-26.9-11.8-26.9-27.3 0-12.9 20.5-32.4 31-32.4 4.9 0 18.5 8.7 18.5 14.5 0 3.4-3.9 10.4-6.8 15.2-.7 1.1-1.3 1.9-2.2 1.9-1.9 0-7.3-2.8-7.3-4.9 0-.8.5-1.8 1.1-3.2 1.6-4.1 3.3-8.1 3.3-11.2-.1-1.6-2.7-3.6-4.4-3.6zm43.1 66.1s-11.1 8.3-15.6 8.3c-6.1 0-15.2-6.4-15.2-11.3 0-5.5 8-34 10.3-41.4.7-1.6 1.5-2.2 2.6-2.2 2.2 0 9.9 4.1 9.9 6.2 0 .8-.2 2.1-.5 2.8-.8 3-8.3 28.1-8.3 33.5 0 1.5 2.1 3.3 3.2 3.3 4.7 0 13.3-10.3 14.4-14 2.9-9.5 6.8-24.6 8.3-29.5.5-1.6 1.5-2.2 2.5-2.2 2.3 0 10.1 4.1 10.1 6.2 0 .8-.2 2.1-.5 2.8-1.1 3-8.9 28.4-8.9 34.6 0 1.5 2 3.3 3.2 3.3 3.4 0 9.8-9 15.6-19.5 0 0 1.1-2.1 2.6-2.1s4 1.9 4 3.3-1.5 4.1-1.5 4.1c-6.6 11.7-13.3 22.3-21.8 22.3-5.4-.2-13.6-5.1-14.4-8.5z"/><path class="st0" d="M547.2 492.9c3.5 0 9.8-9 15.6-19.5 0 0 1.1-2.1 2.6-2.1s4 1.9 4 3.3-1.5 4.1-1.5 4.1c-6.6 11.7-13.3 22.3-21.8 22.3-5.3 0-15.8-4.9-15.8-10.2 0-5.7 6.6-26.2 6.6-30.7 0-2-2-4-3.5-4-2.8 0-9.4 3.9-10.6 7.7-2.6 7.1-7.7 31.1-8.3 34.4-.4 1.6-.8 2.7-2.6 2.7-2.8 0-9.6-3-9.6-6.2 0-3 7.7-32.9 7.7-35.5 0-2.1-1.5-3.3-3.3-3.3-2.5 0-9.1 3-10.9 7.5-3 7.7-8.4 31.4-9.2 34.8-.5 1.5-.8 2.7-2.6 2.7-2.8 0-9.5-3-9.5-6.2 0-3 8.9-38.4 11.3-46.3.6-1.6 2.1-2.5 3.9-2.5 2 0 7.6 6.9 7.6 6.9s10.1-6.9 16.1-6.9c5.3 0 10.8 7.7 10.8 7.7s11.1-7.7 17.3-7.7c3.5 0 9.9 4.8 9.9 9.1 0 5.5-7.3 28.3-7.3 34.5.1 1.7 2.1 3.4 3.1 3.4z"/><path class="st0" d="M630.4 492.9c3.5 0 9.8-9 15.6-19.5 0 0 1.1-2.1 2.6-2.1s4 1.9 4 3.3-1.5 4.1-1.5 4.1c-6.6 11.7-13.3 22.3-21.8 22.3-5.3 0-15.8-4.9-15.8-10.2 0-5.7 6.6-26.2 6.6-30.7 0-2-2-4-3.5-4-2.8 0-9.4 3.9-10.6 7.7-2.6 7.1-7.7 31.1-8.3 34.4-.4 1.6-.8 2.7-2.6 2.7-2.8 0-9.6-3-9.6-6.2 0-3 7.7-32.9 7.7-35.5 0-2.1-1.5-3.3-3.3-3.3-2.5 0-9.1 3-10.9 7.5-3 7.7-8.4 31.4-9.2 34.8-.5 1.5-.8 2.7-2.6 2.7-2.8 0-9.5-3-9.5-6.2 0-3 8.9-38.4 11.3-46.3.6-1.6 2.1-2.5 3.9-2.5 2 0 7.6 6.9 7.6 6.9s10.1-6.9 16.1-6.9c5.3 0 10.8 7.7 10.8 7.7s11.1-7.7 17.3-7.7c3.5 0 9.9 4.8 9.9 9.1 0 5.5-7.3 28.3-7.3 34.5.1 1.7 2.1 3.4 3.1 3.4z"/><path class="st0" d="M667.8 446c6 0 16.7 5.9 16.7 10.9 0 5.8-7.5 24.6-15.1 24.6-5.3 0-11-1.6-11-1.6s-.9 2-.9 5.7c0 2.8 5 7.1 10.1 7.1 6.3 0 15.6-4.3 23.2-19.3 0 0 .9-2.1 2.5-2.1 1.5 0 4 1.9 4 3.3s-1.4 4.1-1.4 4.1c-8 15.1-18.1 22.3-27.6 22.3-10.3 0-24.5-7.6-24.5-16.7-.2-13.3 13.1-38.3 24-38.3zm7.4 12c0-1.6-1.9-2.9-3.5-2.9-4.6 0-11.5 13.9-12.5 19.4 11.2 0 16-13.3 16-16.5z"/><path class="st0" d="M735.4 473.4s1.1-2.1 2.6-2.1 4 1.9 4 3.3-1.5 4.1-1.5 4.1c-6.4 11.7-13.3 22.3-21.8 22.3-5.3 0-14.6-4.4-14.6-9 0-9.1 6.2-25.9 6.2-31.2 0-1.3-4.7-2.2-4.7-2.2s-4.1 9.6-9.8 20.1c0 0-1.2 2.1-2.6 2.1-1.6 0-4.1-1.9-4.1-3.2 0-1.4 1.6-4.2 1.6-4.2 4.1-7.4 8.4-18.3 8.4-18.3s-4.9-3-4.9-7 4.9-13.1 7.8-13.1c3.4 0 9.4 3.7 9.4 6.4 0 2.5-1.8 5.4-1.8 8.4 0 2.9 14.9 4.1 14.9 9 0 3.9-6.8 25.3-6.8 31.9 0 1.3 1.1 2.1 2.1 2.1 3.5.1 9.8-8.9 15.6-19.4zm-574.2 57.5h9.6c.7 0 1.3.2 1.7.7.4.5.6 1 .6 1.7s-.2 1.2-.6 1.7c-.4.5-.9.8-1.7.8h-5.4c-.6 0-1.2.2-1.7.5-.5.4-.8.9-.8 1.7v5.8c0 .6.1 1.2.4 1.7.3.5.8.7 1.5.6h4.1c.7 0 1.3.2 1.7.7s.5 1 .5 1.7-.2 1.2-.5 1.7c-.4.5-.9.8-1.7.8h-4.2c-.5 0-.9.2-1.2.5-.4.3-.5.9-.5 1.7V564c0 .9-.3 1.5-.8 2-.5.4-1.1.6-1.7.6-.6 0-1.2-.2-1.7-.6-.5-.4-.8-1.1-.8-1.9v-30.3c0-1.2.3-1.9.9-2.3.7-.4 1.4-.6 2.3-.6zm17.5 16.3v-13.8c0-.9.3-1.5.8-2 .5-.4 1.1-.6 1.7-.6.6 0 1.2.2 1.7.6.5.4.8 1.1.8 1.9V564c0 .8-.3 1.5-.8 1.9-.5.4-1.1.7-1.7.7-.6 0-1.2-.2-1.7-.7-.5-.4-.8-1.1-.8-2v-16.7zm27.9 18.7c-.4.4-.8.6-1.3.7-.5.1-1-.1-1.5-.4-.5-.3-.9-.8-1.2-1.4l-6.9-15.3c-.1-.3-.2-.5-.4-.6-.2-.1-.3-.1-.4-.1l-.3.3c-.1.2-.1.3-.1.4V564c0 .9-.3 1.5-.8 1.9-.5.4-1.1.7-1.7.7-.6 0-1.2-.2-1.7-.7-.5-.4-.8-1.1-.8-2v-30.5c0-.7.2-1.3.6-1.8.4-.4.9-.7 1.4-.8.5-.1 1.1 0 1.6.3s1 .8 1.2 1.5c.5 1.2 1 2.5 1.6 4 .6 1.4 1.2 2.9 1.7 4.3.6 1.5 1.1 2.9 1.7 4.3.6 1.4 1.1 2.7 1.6 4 .1.2.3.4.4.4s.3.1.4 0c.1-.1.2-.1.3-.2.1-.1.1-.2.1-.3v-15.6c0-.8.3-1.5.8-1.9.5-.4 1.1-.7 1.7-.7.6 0 1.2.2 1.7.6.5.4.8 1.1.8 1.9v30.5c.1 1-.1 1.6-.5 2zm9.3-34.9c1.5 0 2.8-.1 4-.1 1.1 0 2.2.1 3.1.3 1.6.4 3 1.2 4.1 2.5 1.1 1.3 1.9 2.8 2.5 4.5.6 1.7 1.1 3.5 1.4 5.4.3 1.9.4 3.6.4 5s-.1 3.2-.4 5c-.3 1.9-.7 3.6-1.4 5.4-.6 1.7-1.5 3.3-2.5 4.6-1.1 1.3-2.4 2.2-4.1 2.5-.9.2-1.9.3-3.1.3h-4c-.2 0-.5 0-.9-.1s-.7-.2-1-.4c-.3-.2-.6-.5-.8-.8-.2-.4-.3-.8-.3-1.4v-30.2c0-.6.1-1 .3-1.4.2-.3.5-.6.8-.8.3-.2.7-.3 1-.4.4.2.7.1.9.1zm10.2 17.8c0-1.5-.1-3-.4-4.5-.2-1.4-.6-2.7-1-3.9-.5-1.1-1-2-1.7-2.7-.6-.7-1.4-1-2.2-1h-1.4c-.4 0-.7.1-.9.3-.2.2-.4.5-.5.8s-.2.7-.2 1v20c0 .4.1.7.2 1 .1.3.3.6.5.8.2.2.5.3.9.3h1.4c.8 0 1.5-.3 2.2-1 .6-.7 1.2-1.6 1.7-2.8s.8-2.5 1-3.9c.3-1.4.4-2.9.4-4.4zm30.6-1.7c-.4-.8-1-1.9-1.7-3.3-.7-1.3-1.4-2.6-2-3.9-.7-1.3-1.3-2.4-1.8-3.4s-.9-1.6-1-1.9c-.4-.7-.5-1.4-.2-2.1.3-.6.7-1.1 1.2-1.4.5-.3 1.1-.3 1.8-.2.6.2 1.2.6 1.6 1.4l3.7 7.1c.5.9 1.1 1.4 1.7 1.5.6.2 1.2-.3 1.8-1.5l3.7-7.2c.4-.7.9-1.2 1.5-1.4.6-.2 1.2-.1 1.8.2.6.3 1 .7 1.2 1.4s.2 1.3-.2 2.1c-.1.2-.4.9-.9 1.9-.5 1-1.1 2.1-1.8 3.4-.7 1.3-1.4 2.5-2 3.9-.7 1.3-1.2 2.4-1.7 3.2-.2.5-.4 1-.6 1.7-.2.6-.3 1.2-.3 1.7V564c0 .8-.3 1.5-.8 1.9-.5.4-1.1.6-1.7.6s-1.2-.2-1.7-.6c-.5-.4-.8-1.1-.8-2v-13.6c.1-1.1-.2-2.2-.8-3.2zm34.4 10.6c0 1.9-.4 3.6-1.2 4.9-.8 1.3-1.9 2.3-3.1 3s-2.6 1-4 1-2.8-.3-4-.9c-1.2-.6-2.3-1.6-3.1-2.9-.8-1.3-1.3-2.9-1.3-4.9 0-1.5-.1-3-.1-4.5v-9.1c0-1.5 0-3.1.1-4.6 0-1.9.5-3.6 1.3-4.8.8-1.3 1.9-2.3 3.1-2.9 1.2-.6 2.6-.9 4-.9s2.8.4 4 1c1.2.7 2.3 1.6 3.1 3 .8 1.3 1.2 2.9 1.2 4.9v17.7zm-5.1-9.1v-9.3c0-1.2-.4-2-1.1-2.6-.7-.6-1.5-.9-2.4-.8-.9 0-1.6.3-2.3 1-.7.6-1 1.6-1 3v17.9c0 1.3.3 2.3 1 3 .7.6 1.5 1 2.3 1 .9 0 1.7-.3 2.4-.8.7-.6 1.1-1.4 1.1-2.6v-9.8zm27.4 9.1c0 1.9-.4 3.6-1.2 4.9-.8 1.3-1.8 2.3-3.1 3-1.2.7-2.6 1-4 1s-2.8-.3-4-.9c-1.2-.6-2.3-1.6-3.1-2.9-.8-1.3-1.3-2.9-1.3-4.9-.1-4.1-.1-8.2-.1-12.2v-12.2c0-.9.3-1.5.8-2 .5-.4 1.1-.7 1.7-.7.6 0 1.2.2 1.7.6.5.4.8 1.1.8 1.9v24.4c0 .9.1 1.6.4 2.2.3.6.7 1 1.2 1.3.5.3 1.1.4 1.7.5.6 0 1.2-.1 1.7-.4.5-.3 1-.7 1.3-1.2.3-.5.5-1.2.5-1.9v-24.6c0-.9.3-1.5.8-2 .5-.4 1.1-.6 1.7-.6s1.2.2 1.7.6c.5.4.8 1.1.8 1.9v24.2zm5.9-8.9v-14.7c0-.5.1-.9.3-1.3s.5-.7.8-1c.3-.3.6-.5 1-.6s.7-.2 1-.2h7.4c1.2 0 2.2.3 3.1.9.9.6 1.7 1.5 2.3 2.5.6 1 1.1 2.2 1.5 3.5.4 1.3.6 2.6.6 4 0 1 0 1.9-.1 2.6s-.3 1.5-.5 2.1c-.2.7-.5 1.4-.9 2s-.8 1.4-1.3 2.2c-.2.3-.4.6-.6 1-.2.4-.3.7-.4 1.2-.1.4-.1.9 0 1.4.1.5.3 1 .6 1.5l3.2 7.2c.4.7.4 1.4.1 2-.3.6-.7 1-1.3 1.3s-1.2.3-1.8.1c-.6-.2-1.2-.6-1.5-1.4l-4.6-9.7c-.3-.5-.6-.9-1.1-1.1-.4-.2-.9-.3-1.4-.2s-.9.3-1.2.7c-.3.4-.5.9-.5 1.6v7.8c0 .8-.3 1.5-.8 1.9-.5.4-1.1.6-1.7.6-.6 0-1.2-.2-1.7-.7-.5-.4-.8-1.1-.8-2l.3-15.2zm4.9-3.3c0 .6.2 1.2.7 1.7.5.5 1.1.7 1.8.6h2.1c.6 0 1.2-.2 1.7-.5.5-.4.9-.8 1.2-1.4.3-.6.6-1.2.7-2 .2-.7.2-1.5.2-2.3 0-.7-.1-1.5-.3-2.2-.2-.7-.5-1.3-.8-1.9s-.8-1-1.4-1.3c-.5-.3-1.2-.5-1.9-.5h-1.6c-.6 0-1.1.2-1.6.6-.5.4-.8 1-.8 1.8v7.4zm35.5-8.6c.3 1 .3 1.8-.1 2.4-.4.6-.9 1-1.5 1.2-.6.2-1.3.2-1.9-.1-.6-.2-1-.8-1.2-1.6-.2-.6-.5-1.1-.9-1.5-.4-.4-.9-.7-1.5-.9-.6-.2-1.1-.2-1.8-.1-.6.1-1.2.3-1.6.7-.5.4-.8.9-1.1 1.6s-.3 1.6-.2 2.6c.1.6.4 1.2.9 1.8.5.6 1.1 1.1 1.9 1.7.7.6 1.6 1.2 2.4 1.8s1.7 1.2 2.5 1.9c.8.6 1.5 1.3 2.2 2.1.7.7 1.1 1.5 1.5 2.4.3.9.5 1.8.5 2.7.1.9 0 1.9-.2 2.8s-.5 1.8-.9 2.7c-.4.8-.9 1.6-1.5 2.2-1.3 1.4-2.7 2.4-4.5 2.9s-3.4.6-5 .3-3.1-1.1-4.5-2.2-2.2-2.7-2.7-4.7c-.3-1-.2-1.8.2-2.5s.9-1.1 1.6-1.3c.6-.2 1.3-.2 1.9.1.6.3 1.1.8 1.2 1.6.2 1.1.7 2 1.3 2.6.6.6 1.3 1.1 2.1 1.2.8.2 1.5.1 2.3-.1.8-.3 1.5-.8 2.1-1.6.5-.7.8-1.4.9-2.3.1-.8.1-1.7-.1-2.4s-.6-1.4-1.2-1.9c-.6-.6-1.3-1.1-2.2-1.7-.8-.5-1.7-1.1-2.6-1.7s-1.8-1.2-2.6-2c-.8-.7-1.5-1.6-2-2.6s-.8-2.2-.9-3.5c-.1-1.9.2-3.6.9-5s1.6-2.5 2.7-3.4c1.1-.8 2.4-1.4 3.7-1.7s2.7-.3 4.1.1 2.5.9 3.5 1.9c1 .7 1.8 1.9 2.3 3.5zm8.7-6.1h9.6c.7 0 1.3.2 1.7.7.4.5.5 1 .5 1.7 0 .6-.2 1.2-.6 1.7-.4.5-.9.8-1.6.8h-5.4c-.6 0-1.2.2-1.7.5-.5.4-.8.9-.8 1.7v5.8c0 .7.1 1.2.4 1.7.3.4.8.6 1.4.6h4.1c.7 0 1.3.2 1.7.7.4.5.6 1 .6 1.7 0 .6-.2 1.2-.6 1.7-.4.5-.9.8-1.6.8H372c-.5 0-.9.2-1.2.5-.4.3-.5.9-.5 1.7.1 1 .1 1.9.1 2.8 0 .9-.1 1.9-.1 2.9 0 .6.1 1.3.4 1.9.3.6.9.9 1.9.9h5.5c.7 0 1.3.2 1.7.7.4.5.5 1 .5 1.7 0 .6-.2 1.2-.6 1.7-.4.5-.9.8-1.7.8h-9.6c-.7 0-1.3-.1-1.7-.3-.4-.2-.7-.5-.9-.8s-.3-.7-.4-1.1c-.1-.4-.1-.9-.1-1.3v-22.4c0-2.3 0-4.6.1-6.9 0-1.2.3-1.9.9-2.3.5-.4 1.2-.6 2.1-.6zm22.4 28c0 .6.1 1.3.4 1.9.3.6.9.9 1.9.9h5.5c.7 0 1.3.2 1.7.7.4.5.6 1 .6 1.7 0 .6-.2 1.2-.6 1.7-.4.5-.9.8-1.7.8h-9.7c-.7 0-1.3-.1-1.7-.3-.4-.2-.7-.5-.9-.8s-.3-.7-.4-1.1c0-.4-.1-.9-.1-1.3v-29.8c0-.9.3-1.5.8-2 .5-.4 1.1-.7 1.7-.7s1.2.2 1.7.6c.5.4.8 1.1.8 1.9v25.8zm17.7-27.9h9.6c.7 0 1.3.2 1.7.7s.6 1 .6 1.7-.2 1.2-.6 1.7c-.4.5-.9.8-1.7.8h-5.4c-.6 0-1.2.2-1.7.5-.5.4-.8.9-.8 1.7v5.8c0 .6.1 1.2.4 1.7.3.5.8.7 1.5.6h4.1c.7 0 1.3.2 1.7.7.4.5.5 1 .5 1.7s-.2 1.2-.5 1.7c-.4.5-.9.8-1.7.8H412c-.5 0-.9.2-1.2.5-.4.3-.5.9-.5 1.7V564c0 .9-.3 1.5-.8 2-.5.4-1.1.6-1.7.6s-1.2-.2-1.7-.6c-.5-.4-.8-1.1-.8-1.9v-30.3c0-1.2.3-1.9.9-2.3s1.4-.6 2.3-.6zm44.1 3.2l4.3 18.4 2.7 11.5c.1.7 0 1.3-.4 1.8s-.9.8-1.5.9c-.6.1-1.2 0-1.8-.3-.6-.3-.9-.9-1.1-1.8l-.5-2.4c-.1-.5-.3-1-.7-1.5-.4-.4-.9-.6-1.6-.6h-5c-.5 0-1 .1-1.5.3-.5.2-.9.8-1.1 1.6l-.9 3.1c-.2.7-.5 1.1-1.1 1.4-.6.2-1.1.3-1.7.2-.6-.1-1-.5-1.4-.9-.4-.5-.5-1.1-.3-2l7-29.5c.3-1.1.8-1.9 1.5-2.5.7-.5 1.4-.8 2.1-.7.7 0 1.4.3 2 .9.5.4.9 1.1 1 2.1zm-4.3 10.7c-.3 1.4-.5 2.7-.8 4-.2 1.3-.5 2.7-.8 4-.1.5-.1.9.1 1.3s.6.6 1.2.6h2.9c.6 0 1-.2 1.2-.6s.2-.8.1-1.2l-1.7-8c-.1-.3-.2-.6-.4-.8-.2-.2-.4-.3-.6-.3-.2 0-.5 0-.7.2-.3.1-.4.4-.5.8zm18.7 2.6l-.1-8.9c0-.9-.3-1.5-.7-1.8s-1-.4-1.7-.3h-2.3c-.9 0-1.5-.3-1.9-.8-.4-.6-.7-1.2-.7-1.9s.2-1.3.6-1.9c.4-.6 1.1-.9 2-.9h14.5c.9 0 1.5.3 2 .8.4.6.6 1.2.6 1.9s-.2 1.3-.6 1.9c-.4.6-1.1.8-1.9.8l-2.9.1c-.7 0-1.3.1-1.6.4-.3.3-.4.9-.4 1.7V564c0 .8-.3 1.5-.8 1.9-.5.4-1.1.6-1.7.6-.6 0-1.2-.2-1.7-.6-.5-.4-.8-1.1-.8-2v-16.5zm35.4-4.2c0 .6.1 1.2.5 1.8.4.5.9.8 1.5.8h3.5c.6 0 1.1-.3 1.5-.8.4-.5.5-1.1.5-1.8v-9.7c0-.9.3-1.5.8-2 .5-.4 1.1-.7 1.7-.7s1.2.2 1.7.6c.5.4.8 1.1.8 1.9V564c0 .8-.3 1.5-.8 1.9-.5.4-1.1.6-1.7.6s-1.2-.2-1.7-.7c-.5-.4-.8-1.1-.8-2v-10.3c0-.8-.3-1.4-.7-1.8-.4-.4-.9-.6-1.4-.6h-3.3c-.5 0-.9.2-1.4.6-.4.4-.7 1-.7 1.8v10.2c0 .9-.3 1.5-.8 2-.5.4-1.1.7-1.7.7-.6 0-1.2-.2-1.7-.6-.5-.4-.8-1.1-.8-1.9v-30.6c0-.8.3-1.5.8-1.9.5-.4 1.1-.6 1.7-.6.6 0 1.2.2 1.7.7.5.4.8 1.1.8 2v9.7zm34.8 14.5c0 1.9-.4 3.6-1.2 4.9-.8 1.3-1.9 2.3-3.1 3s-2.6 1-4 1-2.8-.3-4-.9c-1.2-.6-2.3-1.6-3.1-2.9-.8-1.3-1.3-2.9-1.3-4.9 0-1.5-.1-3-.1-4.5v-9.1c0-1.5 0-3.1.1-4.6 0-1.9.5-3.6 1.3-4.8.8-1.3 1.9-2.3 3.1-2.9 1.2-.6 2.6-.9 4-.9s2.8.4 4 1c1.2.7 2.3 1.6 3.1 3s1.2 2.9 1.2 4.9v17.7zm-5.1-9.1v-9.3c0-1.2-.4-2-1.1-2.6-.7-.6-1.5-.9-2.4-.8-.9 0-1.6.3-2.3 1-.7.6-1 1.6-1 3v17.9c0 1.3.3 2.3 1 3 .7.6 1.5 1 2.3 1 .9 0 1.7-.3 2.4-.8.7-.6 1.1-1.4 1.1-2.6v-9.8zm10.8-1.3v-13.8c0-.7.2-1.3.6-1.8.4-.4.9-.7 1.4-.8.5-.1 1.1 0 1.6.3s.9.7 1.2 1.4l5.2 12.5c.5 1.2 1 1.9 1.5 1.9.4.1.9-.6 1.5-2l5-12.2c.3-.7.7-1.3 1.2-1.6.5-.3 1-.4 1.6-.3.5.1 1 .3 1.4.7.4.4.6.9.7 1.5v31c0 .9-.3 1.5-.8 2-.5.4-1.1.7-1.7.7s-1.2-.2-1.7-.6c-.5-.4-.8-1.1-.8-1.9v-14.2c0-.4 0-.8-.1-.9-.1-.2-.3-.3-.4-.3-.2 0-.3 0-.5.2-.2.1-.3.3-.4.5-.5 1.2-.9 2.3-1.3 3.2s-.8 2-1.3 3.2c-.2.6-.6 1.1-1 1.4-.4.3-.9.5-1.4.5-.5 0-.9-.1-1.4-.4-.5-.3-.8-.7-1-1.4l-2.6-6.3c-.1-.3-.3-.5-.5-.6-.2-.1-.4-.1-.5 0-.2.1-.3.2-.4.4-.1.2-.1.3-.1.5V564c0 .8-.3 1.5-.8 1.9-.5.4-1.1.6-1.7.6s-1.2-.2-1.7-.7c-.5-.4-.8-1.1-.8-2v-16.5zm31.3-16.5h9.6c.7 0 1.3.2 1.7.7.4.5.5 1 .5 1.7 0 .6-.2 1.2-.6 1.7-.4.5-.9.8-1.6.8h-5.4c-.6 0-1.2.2-1.7.5-.5.4-.8.9-.8 1.7v5.8c0 .7.1 1.2.4 1.7.3.4.8.6 1.4.6h4.1c.7 0 1.3.2 1.7.7.4.5.6 1 .6 1.7 0 .6-.2 1.2-.6 1.7-.4.5-.9.8-1.6.8h-4.2c-.5 0-.9.2-1.2.5-.4.3-.5.9-.5 1.7.1 1 .1 1.9.1 2.8 0 .9-.1 1.9-.1 2.9 0 .6.1 1.3.4 1.9.3.6.9.9 1.9.9h5.5c.7 0 1.3.2 1.7.7.4.5.5 1 .5 1.7 0 .6-.2 1.2-.6 1.7-.4.5-.9.8-1.7.8h-9.6c-.7 0-1.3-.1-1.7-.3-.4-.2-.7-.5-.9-.8-.2-.3-.3-.7-.4-1.1-.1-.4-.1-.9-.1-1.3v-22.4c0-2.3 0-4.6.1-6.9 0-1.2.3-1.9.9-2.3.6-.4 1.3-.6 2.2-.6z"/></g><g id="horizontal_lines" stroke="#dd6c4e" stroke-width="6" stroke-linecap="round" stroke-miterlimit="10"><path id="top_2_" fill="none" d="M3.9 386.4H746"/><path id="bottom_2_" fill="#ef7a52" d="M3 598.1h743"/></g><g id="logo"><g id="logo_1_"><path id="triangle_inside" class="st3" d="M226.6 386.2l-100-97c-4.1-4.1-4.1-10.7 0-14.8l244-244c2-2 4.6-3.1 7.4-3.1s5.4 1.1 7.4 3.1l244 244c4.1 4.1 4.1 10.7 0 14.8l-97.1 97-3.5-3.5 97.1-97c2.1-2.1 2.1-5.6 0-7.7l-244-244c-1-1-2.4-1.6-3.9-1.6s-2.8.6-3.9 1.6l-244 244c-2.1 2.1-2.1 5.6 0 7.7l99.9 96.9-3.4 3.6z"/><path id="triangle_outside" class="st3" d="M198.1 386.9l-98.3-96.4c-2.3-2.3-3.6-5.4-3.6-8.7s1.3-6.4 3.6-8.7L369.3 3.6c4.8-4.8 12.6-4.8 17.4 0l269.5 269.5c4.8 4.8 4.8 12.6 0 17.3l-93.9 96.4-5-4.9 93.9-96.4c2.1-2.1 2.1-5.4 0-7.5L381.7 8.5c-1-1-2.3-1.5-3.7-1.5s-2.7.5-3.7 1.5L104.7 278.1c-1 1-1.5 2.3-1.5 3.7s.5 2.7 1.5 3.7l98.3 96.4-4.9 5z"/><path id="sun" class="st3" d="M340.1 185.7c-5.5-8-8.3-17.5-8.3-27.4 0-26.1 20.3-47.4 45.2-47.4s45.2 21.2 45.2 47.4c0 9.9-2.9 19.3-8.3 27.4l-4.1-2.8c4.9-7.2 7.5-15.7 7.5-24.6 0-23.4-18.1-42.4-40.2-42.4s-40.2 19-40.2 42.4c0 8.9 2.6 17.4 7.5 24.6l-4.3 2.8z"/><path class="st3" d="M327.4 328.3H239c-1.7 0-3-1.3-3-3s1.3-3 3-3h88.4c1.7 0 3 1.3 3 3s-1.4 3-3 3zm10.4 18.5h-65.3c-1.7 0-3-1.3-3-3s1.3-3 3-3h65.3c1.7 0 3 1.3 3 3s-1.4 3-3 3zm68.5 0h-50.5c-1.7 0-3-1.3-3-3s1.3-3 3-3h50.5c1.7 0 3 1.3 3 3s-1.3 3-3 3zm103.4-18.5H341.3c-1.7 0-3-1.3-3-3s1.3-3 3-3h168.3c1.7 0 3 1.3 3 3s-1.3 3-2.9 3zm-25.5 18.5h-55.8c-1.7 0-3-1.3-3-3s1.3-3 3-3h55.8c1.7 0 3 1.3 3 3s-1.4 3-3 3zm-113.8 19.4h-65.3c-1.7 0-3-1.3-3-3s1.3-3 3-3h65.3c1.7 0 3 1.3 3 3s-1.3 3-3 3zm80.1 0h-65.3c-1.7 0-3-1.3-3-3s1.3-3 3-3h65.3c1.7 0 3 1.3 3 3s-1.4 3-3 3z" id="river_2_"/><path class="st3" d="M493 309.2c-.6.5-.7 1.4-.2 2 .5.6 1.4.7 2 .2l3-2.6v12.6c0 .8.6 1.4 1.4 1.4.8 0 1.4-.6 1.4-1.4v-12.6l3 2.6c.3.2.6.3.9.3.4 0 .8-.2 1.1-.5.5-.6.4-1.5-.2-2l-4.9-4.1v-3.2l3 2.6c.3.2.6.3.9.3.4 0 .8-.2 1.1-.5.5-.6.4-1.5-.2-2l-4.9-4.1V295l3 2.6c.3.2.6.3.9.3.4 0 .8-.2 1.1-.5.5-.6.4-1.5-.2-2l-5.4-4.5c-.5-.4-1.3-.4-1.8 0l-5.4 4.5c-.6.5-.7 1.4-.2 2 .5.6 1.4.7 2 .2l3-2.6v3.2l-4.9 4.1c-.6.5-.7 1.4-.2 2 .5.6 1.4.7 2 .2l3-2.6v3.2l-4.3 4.1zm-25.7-3.7c-.8.6-.9 1.8-.2 2.6.6.8 1.8.9 2.6.2l3.9-3.3v16c0 1 .8 1.8 1.8 1.8s1.8-.8 1.8-1.8v-16l3.9 3.3c.3.3.8.4 1.2.4.5 0 1-.2 1.4-.6.6-.8.5-1.9-.2-2.6l-6.2-5.2v-4.1l3.9 3.3c.3.3.8.4 1.2.4.5 0 1-.2 1.4-.6.6-.8.5-1.9-.2-2.6l-6.2-5.2v-4.1l3.9 3.3c.3.3.8.4 1.2.4.5 0 1-.2 1.4-.6.6-.8.5-1.9-.2-2.6l-6.8-5.8c-.7-.6-1.7-.6-2.3 0l-6.8 5.8c-.8.6-.9 1.8-.2 2.6.6.8 1.8.9 2.6.2l3.9-3.3v4.1l-6.2 5.2c-.8.6-.9 1.8-.2 2.6.6.8 1.8.9 2.6.2l3.9-3.3v4.1l-6.9 5.2zm-20.7 3.7c-.6.5-.7 1.4-.2 2 .5.6 1.4.7 2 .2l3-2.6v12.6c0 .8.6 1.4 1.4 1.4s1.4-.6 1.4-1.4v-12.6l3 2.6c.3.2.6.3.9.3.4 0 .8-.2 1.1-.5.5-.6.4-1.5-.2-2l-4.9-4.1v-3.2l3 2.6c.3.2.6.3.9.3.4 0 .8-.2 1.1-.5.5-.6.4-1.5-.2-2l-4.9-4.1V295l3 2.6c.3.2.6.3.9.3.4 0 .8-.2 1.1-.5.5-.6.4-1.5-.2-2l-5.4-4.5c-.5-.4-1.3-.4-1.8 0l-5.4 4.5c-.6.5-.7 1.4-.2 2 .5.6 1.4.7 2 .2l3-2.6v3.2l-4.9 4.1c-.6.5-.7 1.4-.2 2 .5.6 1.4.7 2 .2l3-2.6v3.2l-4.3 4.1z" id="Left_trees_1_"/><path class="st3" d="M401.1 307.7c-.7.6-.8 1.6-.2 2.2.6.7 1.6.8 2.2.2l3.4-2.9v14c0 .9.7 1.6 1.6 1.6.9 0 1.6-.7 1.6-1.6v-14l3.4 2.9c.3.3.7.4 1 .4.5 0 .9-.2 1.2-.6.6-.7.5-1.7-.2-2.2l-5.4-4.6v-3.6l3.4 2.9c.3.3.7.4 1 .4.5 0 .9-.2 1.2-.6.6-.7.5-1.7-.2-2.2l-5.4-4.6v-3.6l3.4 2.9c.3.3.7.4 1 .4.5 0 .9-.2 1.2-.6.6-.7.5-1.7-.2-2.2l-6-5.1c-.6-.5-1.5-.5-2 0l-6 5.1c-.7.6-.8 1.6-.2 2.2.6.7 1.6.8 2.2.2l3.4-2.9v3.6l-5.4 4.6c-.7.6-.8 1.6-.2 2.2.6.7 1.6.8 2.2.2l3.4-2.9v3.6l-5.4 4.6zm-28.6-4.1c-.9.7-1 2-.2 2.8.7.9 2 1 2.8.2l4.3-3.6v17.8c0 1.1.9 2 2 2s2-.9 2-2V303l4.3 3.6c.4.3.8.5 1.3.5.6 0 1.1-.2 1.5-.7.7-.9.6-2.1-.2-2.8l-6.9-5.8v-4.5l4.3 3.6c.4.3.8.5 1.3.5.6 0 1.1-.2 1.5-.7.7-.9.6-2.1-.2-2.8l-6.9-5.8v-4.5l4.3 3.6c.4.3.8.5 1.3.5.6 0 1.1-.2 1.5-.7.7-.9.6-2.1-.2-2.8l-7.6-6.4c-.8-.6-1.8-.6-2.6 0l-7.6 6.4c-.9.7-1 2-.2 2.8.7.9 2 1 2.8.2l4.3-3.6v4.5l-6.9 5.8c-.9.7-1 2-.2 2.8.7.9 2 1 2.8.2l4.3-3.6v4.5l-6.9 5.8zm-23.1 4.1c-.7.6-.8 1.6-.2 2.2.6.7 1.6.8 2.2.2l3.4-2.9v14c0 .9.7 1.6 1.6 1.6.9 0 1.6-.7 1.6-1.6v-14l3.4 2.9c.3.3.7.4 1 .4.5 0 .9-.2 1.2-.6.6-.7.5-1.7-.2-2.2l-5.4-4.6v-3.6l3.4 2.9c.3.3.7.4 1 .4.5 0 .9-.2 1.2-.6.6-.7.5-1.7-.2-2.2l-5.4-4.6v-3.6l3.4 2.9c.3.3.7.4 1 .4.5 0 .9-.2 1.2-.6.6-.7.5-1.7-.2-2.2l-6-5.1c-.6-.5-1.5-.5-2 0l-6 5.1c-.7.6-.8 1.6-.2 2.2.6.7 1.6.8 2.2.2l3.4-2.9v3.6l-5.4 4.6c-.7.6-.8 1.6-.2 2.2.6.7 1.6.8 2.2.2l3.4-2.9v3.6l-5.4 4.6z" id="Right_tree_4_"/><path class="st3" d="M298.7 307.2c-.7.6-.8 1.7-.2 2.4.6.7 1.7.8 2.4.2l3.6-3.1v15c0 .9.8 1.7 1.7 1.7.9 0 1.7-.8 1.7-1.7v-15l3.6 3.1c.3.3.7.4 1.1.4.5 0 1-.2 1.3-.6.6-.7.5-1.8-.2-2.4l-5.8-4.9v-3.8l3.6 3.1c.3.3.7.4 1.1.4.5 0 1-.2 1.3-.6.6-.7.5-1.8-.2-2.4l-5.8-4.9v-3.8l3.6 3.1c.3.3.7.4 1.1.4.5 0 1-.2 1.3-.6.6-.7.5-1.8-.2-2.4l-6.4-5.4c-.6-.5-1.6-.5-2.2 0l-6.4 5.4c-.7.6-.8 1.7-.2 2.4.6.7 1.7.8 2.4.2l3.6-3.1v3.8l-5.8 4.9c-.7.6-.8 1.7-.2 2.4.6.7 1.7.8 2.4.2l3.6-3.1v3.8l-5.8 4.9zm-30.6-4.4c-.9.8-1 2.1-.3 3 .8.9 2.1 1 3 .3l4.6-3.9v19c0 1.2 1 2.2 2.2 2.2 1.2 0 2.2-1 2.2-2.2v-19l4.6 3.9c.4.3.9.5 1.4.5.6 0 1.2-.3 1.6-.8.8-.9.7-2.3-.3-3l-7.4-6.2v-4.8l4.6 3.9c.4.3.9.5 1.4.5.6 0 1.2-.3 1.6-.8.8-.9.7-2.3-.3-3l-7.4-6.2v-4.8l4.6 3.9c.4.3.9.5 1.4.5.6 0 1.2-.3 1.6-.8.8-.9.7-2.3-.3-3l-8.1-6.9c-.8-.7-2-.7-2.8 0l-8.1 6.9c-.9.8-1 2.1-.3 3 .8.9 2.1 1 3 .3l4.6-3.9v4.8l-7.4 6.2c-.9.8-1 2.1-.3 3 .8.9 2.1 1 3 .3l4.6-3.9v4.8l-7 6.2zm-24.7 4.4c-.7.6-.8 1.7-.2 2.4.6.7 1.7.8 2.4.2l3.6-3.1v15c0 .9.8 1.7 1.7 1.7.9 0 1.7-.8 1.7-1.7v-15l3.6 3.1c.3.3.7.4 1.1.4.5 0 1-.2 1.3-.6.6-.7.5-1.8-.2-2.4l-5.8-4.9v-3.8l3.6 3.1c.3.3.7.4 1.1.4.5 0 1-.2 1.3-.6.6-.7.5-1.8-.2-2.4l-5.8-4.9v-3.8l3.6 3.1c.3.3.7.4 1.1.4.5 0 1-.2 1.3-.6.6-.7.5-1.8-.2-2.4l-6.4-5.4c-.6-.5-1.6-.5-2.2 0l-6.4 5.4c-.7.6-.8 1.7-.2 2.4.6.7 1.7.8 2.4.2l3.6-3.1v3.8l-5.8 4.9c-.7.6-.8 1.7-.2 2.4.6.7 1.7.8 2.4.2l3.6-3.1v3.8l-5.8 4.9z" id="Right_tree_3_"/><g id="hills_1_"><path class="st3" d="M627.5 284.2h-79.9c-.6 0-1.3-.2-1.7-.7l-75.3-71.9-58.2 58.2c-1 1-2.6 1-3.5 0s-1-2.6 0-3.5l59.9-59.9c1-1 2.5-1 3.5 0l76.3 72.9h78.9c1.4 0 2.5 1.1 2.5 2.5s-1.1 2.4-2.5 2.4z"/><path class="st3" d="M430.4 263.2c-.6 0-1.3-.2-1.8-.7-1-1-1-2.6 0-3.5l13.7-13.7c1-1 2.6-1 3.5 0 1 1 1 2.6 0 3.5l-13.7 13.7c-.4.5-1.1.7-1.7.7zm78.9-3.5c-.6 0-1.3-.2-1.7-.7l-9.1-8.9c-1-1-1-2.5 0-3.5s2.5-1 3.5 0l9.1 8.9c1 1 1 2.5 0 3.5-.5.4-1.1.7-1.8.7zm-17.7-17.4c-.6 0-1.3-.2-1.7-.7l-17.3-16.8c-1-1-1-2.5 0-3.5s2.5-1 3.5 0l17.3 16.8c1 1 1 2.5 0 3.5-.5.5-1.2.7-1.8.7zM193 284.8h-64.7c-1.4 0-2.5-1.1-2.5-2.5s1.1-2.5 2.5-2.5H192l76.3-72.9c1-.9 2.5-.9 3.5 0l59.9 59.9c1 1 1 2.6 0 3.5-1 1-2.6 1-3.5 0L270 212.2l-75.3 71.9c-.4.4-1 .7-1.7.7z"/><path class="st3" d="M291.2 232c-.7 0-1.4-.3-1.9-.8-.9-1-.8-2.6.2-3.5l87.6-77.8c1-.9 2.4-.8 3.4.1l75.9 72c1 1 1 2.5.1 3.5-1 1-2.5 1-3.5.1l-74.2-70.5-85.9 76.3c-.5.4-1.1.6-1.7.6z"/><path class="st3" d="M314 225.7c-.6 0-1.3-.2-1.8-.7-1-1-1-2.6 0-3.5l13.7-13.7c1-1 2.6-1 3.5 0 1 1 1 2.6 0 3.5L315.8 225c-.5.5-1.1.7-1.8.7zm21.3-18.9c-.7 0-1.4-.3-1.9-.8-.9-1-.8-2.6.2-3.5l33.4-29.4c1-.9 2.6-.8 3.5.2.9 1 .8 2.6-.2 3.5l-33.4 29.4c-.5.4-1.1.6-1.6.6zm-25 57c-.6 0-1.3-.2-1.8-.7l-13.7-13.7c-1-1-1-2.6 0-3.5 1-1 2.6-1 3.5 0l13.7 13.7c1 1 1 2.6 0 3.5-.4.5-1.1.7-1.7.7zm-79-3.5c-.7 0-1.3-.3-1.8-.8-1-1-.9-2.6 0-3.5l9.1-8.9c1-1 2.6-.9 3.5 0s.9 2.6 0 3.5l-9.1 8.9c-.4.5-1 .8-1.7.8zm17.8-17.4c-.7 0-1.3-.3-1.8-.8-1-1-.9-2.6 0-3.5l17.3-16.8c1-1 2.6-.9 3.5 0 1 1 .9 2.6 0 3.5l-17.3 16.8c-.4.6-1.1.8-1.7.8z"/></g></g></g></svg>