<?xml version="1.0" encoding="utf-8"?>
<!-- Generator: Adobe Illustrator 24.0.3, SVG Export Plug-In . SVG Version: 6.00 Build 0)  -->
<svg version="1.1" xmlns="http://www.w3.org/2000/svg" xmlns:xlink="http://www.w3.org/1999/xlink" x="0px" y="0px"
	 viewBox="0 0 749 601.1" style="enable-background:new 0 0 749 601.1;" xml:space="preserve">
<style type="text/css">
	.st0{fill:#0F323D;}
	.st1{fill:none;stroke:#DD6C4E;stroke-width:6;stroke-linecap:round;stroke-miterlimit:10;}
	.st2{fill:#EF7A52;stroke:#DD6C4E;stroke-width:6;stroke-linecap:round;stroke-miterlimit:10;}
	.st3{fill:#DD6C4E;}
</style>
<g id="blue_x5F_background">
	<g id="Layer_11">
	</g>
</g>
<g id="Brand_name_and_tagline">
	<g>
		<g>
			<path class="st0" d="M36.1,501c-12.2,0-32.2-11-32.2-24.7c0-21.9,17.8-58.4,33.7-58.4c12.1,0,30.7,12.4,30.7,22.1
				C68.3,459.8,54.1,501,36.1,501z M44.6,426.9c-13,0-26.2,33.8-26.2,51.8c0,7.8,6.7,13.5,11.8,13.5c14,0,24-37.8,24-54.4
				C54.2,432,50.6,426.9,44.6,426.9z"/>
			<path class="st0" d="M111.3,492.9c3.5,0,9.8-9,15.6-19.5c0,0,1.1-2.1,2.6-2.1s4,1.9,4,3.3c0,1.4-1.5,4.1-1.5,4.1
				c-6.4,11.7-13.3,22.3-21.8,22.3c-5.3,0-15.8-4.9-15.8-10.2c0-7.5,6.6-26.2,6.6-30.7c0-2-2-4-3.5-4c-2.5,0-9,2.9-10.8,7.4
				c-3,7.7-8.4,31.4-9.1,34.8c-0.5,1.5-0.8,2.7-2.6,2.7c-2.7,0-9.6-2.9-9.6-6.1c0-3,8.9-38.5,11.3-46.5c0.7-1.6,2.2-2.5,4-2.5
				c2,0,7.5,6.9,7.5,6.9s11.5-6.9,17.6-6.9c3.5,0,9.8,4.8,9.8,9.1c0,5.5-7.3,28.3-7.3,34.5C108.3,491.2,110.3,492.9,111.3,492.9z"/>
			<path class="st0" d="M146.9,447.2h10.1c0.7,0,1.4,0.4,1.4,1.1c0,1.5-2.2,6.2-4.1,6.2h-9.4c-3.9,13.2-8.2,29.3-8.2,31.9
				c0,3.7,3.3,6.6,6.6,6.6c3.4,0,9.8-9,15.6-19.5c0,0,1.1-2.1,2.6-2.1s4,1.9,4,3.3c0,1.4-1.5,4.1-1.5,4.1
				c-6.4,11.7-13.3,22.3-21.9,22.3c-8,0-19-5.5-19-11.3c0-3.2,4.2-20,8.2-35.2h-4c-0.6,0-1.3-0.5-1.3-1.2c0-1.4,2.1-6.1,4-6.1h3.3
				c2.2-8.2,4.1-15,4.9-17.5c0.5-1.6,1.5-2.6,2.5-2.6c2.3,0,10.1,4.4,10.1,6.6c0,0.7-0.2,2-0.5,2.8L146.9,447.2z"/>
			<path class="st0" d="M219.2,471.3c1.5,0,4,1.9,4,3.3c0,1.4-1.5,4.1-1.5,4.1c-6.4,11.7-13.3,22.3-21.8,22.3
				c-5.3,0-15-4.4-15.9-7.7c0,0-7,7.7-13,7.7c-5.4,0-15.1-7.4-15.1-13.7c0-15.4,13.9-41.3,24.6-41.3c9.4,0,15.3,7,15.3,7
				c3,0,10.1,0.8,10.1,3.7c0,4.1-8,23.5-8,32.9c0,1.5,2.1,3.3,3.2,3.3c3.5,0,9.8-9,15.6-19.5C216.6,473.4,217.7,471.3,219.2,471.3z
				 M184.8,455.4c-5.9,0-15.2,21.6-15.2,31.9c0,2.7,2.1,4.7,4.1,4.7c2.3,0,8.2-4.1,11.5-10.9c2.3-4.9,6-19.1,6-22.3
				C191.1,456.9,186.7,455.4,184.8,455.4z"/>
			<path class="st0" d="M261.3,473.4c0,0,1.1-2.1,2.6-2.1c1.5,0,4,1.9,4,3.3c0,1.4-1.5,4.1-1.5,4.1c-6.4,11.7-13.3,22.3-21.8,22.3
				c-5.3,0-14.6-4.4-14.6-9c0-9.1,6.2-25.9,6.2-31.2c0-1.3-4.7-2.2-4.7-2.2s-4.1,9.6-9.8,20.1c0,0-1.2,2.1-2.6,2.1
				c-1.6,0-4.1-1.9-4.1-3.2c0-1.4,1.6-4.2,1.6-4.2c4.1-7.4,8.4-18.3,8.4-18.3s-4.9-3-4.9-7S225,435,228,435c3.4,0,9.4,3.7,9.4,6.4
				c0,2.5-1.8,5.4-1.8,8.4c0,2.9,14.9,4.1,14.9,9c0,3.9-6.8,25.3-6.8,31.9c0,1.3,1.1,2.1,2.1,2.1
				C249.2,492.9,255.6,483.9,261.3,473.4z"/>
			<path class="st0" d="M267.7,448.5c0.5-1.6,2.1-2.5,3.9-2.5c1.4,0,9.4,4.2,9.4,6.4c0,2.7-9.5,29-9.5,37.2c0,1.5,1.9,3.3,3,3.3
				c3.4,0,9.7-9,15.7-19.5c0,0,0.9-2.1,2.5-2.1c1.5,0,4,1.9,4,3.3c0,1.4-1.6,4.1-1.6,4.1c-6.3,11.7-13.3,22.3-21.8,22.3
				c-5.3,0-15.8-4.9-15.8-10.2C257.4,485.3,265.7,455.7,267.7,448.5z M273.3,435.8c0-4.4,2.7-12.1,6.6-12.1c2.9,0,8.1,2,8.1,4.9
				c0,4.4-2.8,12.1-6.6,12.1C278.5,440.7,273.3,438.7,273.3,435.8z"/>
			<path class="st0" d="M312,446c9,0,21.8,8.5,21.8,15.8c0,13.5-10.9,39.2-24.2,39.2c-8.2,0-21.6-7.7-21.6-16.1
				C287.9,468.6,299.4,446,312,446z M307.2,492.9c5.8,0,15.8-21.8,15.8-33.6c0-2.6-3.2-4.7-5.5-4.7c-6,0-15.6,19.9-15.6,33
				C301.9,490.6,304.8,492.9,307.2,492.9z"/>
			<path class="st0" d="M405.6,426.6c-4.7,0-17.6,15.2-17.6,24.9c0,10.2,26.9,11.2,26.9,23.1c0,10.1-14.7,26.4-26.8,26.4
				c-9.7,0-24-10.9-24-17.7c0-3.5,7.7-12.6,10.1-12.6c1.3,0,6.1,3.2,6.1,4.8c0,1.5-2.2,6.1-2.2,9.1c0,2.6,4.1,8.2,6.9,8.2
				c6.8,0,14.3-9.6,14.3-15.2c0-10.2-26.9-11.8-26.9-27.3c0-12.9,20.5-32.4,31-32.4c4.9,0,18.5,8.7,18.5,14.5
				c0,3.4-3.9,10.4-6.8,15.2c-0.7,1.1-1.3,1.9-2.2,1.9c-1.9,0-7.3-2.8-7.3-4.9c0-0.8,0.5-1.8,1.1-3.2c1.6-4.1,3.3-8.1,3.3-11.2
				C409.9,428.6,407.3,426.6,405.6,426.6z"/>
			<path class="st0" d="M448.7,492.7c0,0-11.1,8.3-15.6,8.3c-6.1,0-15.2-6.4-15.2-11.3c0-5.5,8-34,10.3-41.4
				c0.7-1.6,1.5-2.2,2.6-2.2c2.2,0,9.9,4.1,9.9,6.2c0,0.8-0.2,2.1-0.5,2.8c-0.8,3-8.3,28.1-8.3,33.5c0,1.5,2.1,3.3,3.2,3.3
				c4.7,0,13.3-10.3,14.4-14c2.9-9.5,6.8-24.6,8.3-29.5c0.5-1.6,1.5-2.2,2.5-2.2c2.3,0,10.1,4.1,10.1,6.2c0,0.8-0.2,2.1-0.5,2.8
				c-1.1,3-8.9,28.4-8.9,34.6c0,1.5,2,3.3,3.2,3.3c3.4,0,9.8-9,15.6-19.5c0,0,1.1-2.1,2.6-2.1s4,1.9,4,3.3c0,1.4-1.5,4.1-1.5,4.1
				c-6.6,11.7-13.3,22.3-21.8,22.3C457.7,501,449.5,496.1,448.7,492.7z"/>
			<path class="st0" d="M547.2,492.9c3.5,0,9.8-9,15.6-19.5c0,0,1.1-2.1,2.6-2.1c1.5,0,4,1.9,4,3.3c0,1.4-1.5,4.1-1.5,4.1
				c-6.6,11.7-13.3,22.3-21.8,22.3c-5.3,0-15.8-4.9-15.8-10.2c0-5.7,6.6-26.2,6.6-30.7c0-2-2-4-3.5-4c-2.8,0-9.4,3.9-10.6,7.7
				c-2.6,7.1-7.7,31.1-8.3,34.4c-0.4,1.6-0.8,2.7-2.6,2.7c-2.8,0-9.6-3-9.6-6.2c0-3,7.7-32.9,7.7-35.5c0-2.1-1.5-3.3-3.3-3.3
				c-2.5,0-9.1,3-10.9,7.5c-3,7.7-8.4,31.4-9.2,34.8c-0.5,1.5-0.8,2.7-2.6,2.7c-2.8,0-9.5-3-9.5-6.2c0-3,8.9-38.4,11.3-46.3
				c0.6-1.6,2.1-2.5,3.9-2.5c2,0,7.6,6.9,7.6,6.9s10.1-6.9,16.1-6.9c5.3,0,10.8,7.7,10.8,7.7s11.1-7.7,17.3-7.7
				c3.5,0,9.9,4.8,9.9,9.1c0,5.5-7.3,28.3-7.3,34.5C544.2,491.2,546.2,492.9,547.2,492.9z"/>
			<path class="st0" d="M630.4,492.9c3.5,0,9.8-9,15.6-19.5c0,0,1.1-2.1,2.6-2.1c1.5,0,4,1.9,4,3.3c0,1.4-1.5,4.1-1.5,4.1
				c-6.6,11.7-13.3,22.3-21.8,22.3c-5.3,0-15.8-4.9-15.8-10.2c0-5.7,6.6-26.2,6.6-30.7c0-2-2-4-3.5-4c-2.8,0-9.4,3.9-10.6,7.7
				c-2.6,7.1-7.7,31.1-8.3,34.4c-0.4,1.6-0.8,2.7-2.6,2.7c-2.8,0-9.6-3-9.6-6.2c0-3,7.7-32.9,7.7-35.5c0-2.1-1.5-3.3-3.3-3.3
				c-2.5,0-9.1,3-10.9,7.5c-3,7.7-8.4,31.4-9.2,34.8c-0.5,1.5-0.8,2.7-2.6,2.7c-2.8,0-9.5-3-9.5-6.2c0-3,8.9-38.4,11.3-46.3
				c0.6-1.6,2.1-2.5,3.9-2.5c2,0,7.6,6.9,7.6,6.9s10.1-6.9,16.1-6.9c5.3,0,10.8,7.7,10.8,7.7s11.1-7.7,17.3-7.7
				c3.5,0,9.9,4.8,9.9,9.1c0,5.5-7.3,28.3-7.3,34.5C627.4,491.2,629.4,492.9,630.4,492.9z"/>
			<path class="st0" d="M667.8,446c6,0,16.7,5.9,16.7,10.9c0,5.8-7.5,24.6-15.1,24.6c-5.3,0-11-1.6-11-1.6s-0.9,2-0.9,5.7
				c0,2.8,5,7.1,10.1,7.1c6.3,0,15.6-4.3,23.2-19.3c0,0,0.9-2.1,2.5-2.1c1.5,0,4,1.9,4,3.3c0,1.4-1.4,4.1-1.4,4.1
				c-8,15.1-18.1,22.3-27.6,22.3c-10.3,0-24.5-7.6-24.5-16.7C643.6,471,656.9,446,667.8,446z M675.2,458c0-1.6-1.9-2.9-3.5-2.9
				c-4.6,0-11.5,13.9-12.5,19.4C670.4,474.5,675.2,461.2,675.2,458z"/>
			<path class="st0" d="M735.4,473.4c0,0,1.1-2.1,2.6-2.1c1.5,0,4,1.9,4,3.3c0,1.4-1.5,4.1-1.5,4.1c-6.4,11.7-13.3,22.3-21.8,22.3
				c-5.3,0-14.6-4.4-14.6-9c0-9.1,6.2-25.9,6.2-31.2c0-1.3-4.7-2.2-4.7-2.2s-4.1,9.6-9.8,20.1c0,0-1.2,2.1-2.6,2.1
				c-1.6,0-4.1-1.9-4.1-3.2c0-1.4,1.6-4.2,1.6-4.2c4.1-7.4,8.4-18.3,8.4-18.3s-4.9-3-4.9-7s4.9-13.1,7.8-13.1c3.4,0,9.4,3.7,9.4,6.4
				c0,2.5-1.8,5.4-1.8,8.4c0,2.9,14.9,4.1,14.9,9c0,3.9-6.8,25.3-6.8,31.9c0,1.3,1.1,2.1,2.1,2.1
				C723.3,492.9,729.6,483.9,735.4,473.4z"/>
		</g>
		<g>
			<path class="st0" d="M161.2,530.9h9.6c0.7,0,1.3,0.2,1.7,0.7c0.4,0.5,0.6,1,0.6,1.7s-0.2,1.2-0.6,1.7c-0.4,0.5-0.9,0.8-1.7,0.8
				h-5.4c-0.6,0-1.2,0.2-1.7,0.5c-0.5,0.4-0.8,0.9-0.8,1.7v5.8c0,0.6,0.1,1.2,0.4,1.7c0.3,0.5,0.8,0.7,1.5,0.6h4.1
				c0.7,0,1.3,0.2,1.7,0.7s0.5,1,0.5,1.7s-0.2,1.2-0.5,1.7c-0.4,0.5-0.9,0.8-1.7,0.8h-4.2c-0.5,0-0.9,0.2-1.2,0.5
				c-0.4,0.3-0.5,0.9-0.5,1.7V564c0,0.9-0.3,1.5-0.8,2c-0.5,0.4-1.1,0.6-1.7,0.6c-0.6,0-1.2-0.2-1.7-0.6c-0.5-0.4-0.8-1.1-0.8-1.9
				v-16.5c0-2.3,0-4.6,0-6.9c0-2.3,0-4.6,0-6.9c0-1.2,0.3-1.9,0.9-2.3C159.6,531.1,160.3,530.9,161.2,530.9z"/>
			<path class="st0" d="M178.7,547.2v-13.8c0-0.9,0.3-1.5,0.8-2c0.5-0.4,1.1-0.6,1.7-0.6c0.6,0,1.2,0.2,1.7,0.6
				c0.5,0.4,0.8,1.1,0.8,1.9V547v17c0,0.8-0.3,1.5-0.8,1.9c-0.5,0.4-1.1,0.7-1.7,0.7c-0.6,0-1.2-0.2-1.7-0.7c-0.5-0.4-0.8-1.1-0.8-2
				V547.2z"/>
			<path class="st0" d="M206.6,565.9c-0.4,0.4-0.8,0.6-1.3,0.7c-0.5,0.1-1-0.1-1.5-0.4c-0.5-0.3-0.9-0.8-1.2-1.4l-6.9-15.3
				c-0.1-0.3-0.2-0.5-0.4-0.6c-0.2-0.1-0.3-0.1-0.4-0.1c-0.1,0.1-0.2,0.2-0.3,0.3c-0.1,0.2-0.1,0.3-0.1,0.4v14.5
				c0,0.9-0.3,1.5-0.8,1.9c-0.5,0.4-1.1,0.7-1.7,0.7c-0.6,0-1.2-0.2-1.7-0.7c-0.5-0.4-0.8-1.1-0.8-2v-16.7v-13.8
				c0-0.7,0.2-1.3,0.6-1.8c0.4-0.4,0.9-0.7,1.4-0.8c0.5-0.1,1.1,0,1.6,0.3c0.5,0.3,1,0.8,1.2,1.5c0.5,1.2,1,2.5,1.6,4
				c0.6,1.4,1.2,2.9,1.7,4.3c0.6,1.5,1.1,2.9,1.7,4.3c0.6,1.4,1.1,2.7,1.6,4c0.1,0.2,0.3,0.4,0.4,0.4s0.3,0.1,0.4,0
				c0.1-0.1,0.2-0.1,0.3-0.2c0.1-0.1,0.1-0.2,0.1-0.3v-15.6c0-0.8,0.3-1.5,0.8-1.9c0.5-0.4,1.1-0.7,1.7-0.7c0.6,0,1.2,0.2,1.7,0.6
				c0.5,0.4,0.8,1.1,0.8,1.9v13.6v16.9C207.2,564.9,207,565.5,206.6,565.9z"/>
			<path class="st0" d="M215.9,531c1.5,0,2.8-0.1,4-0.1c1.1,0,2.2,0.1,3.1,0.3c1.6,0.4,3,1.2,4.1,2.5c1.1,1.3,1.9,2.8,2.5,4.5
				c0.6,1.7,1.1,3.5,1.4,5.4c0.3,1.9,0.4,3.6,0.4,5s-0.1,3.2-0.4,5c-0.3,1.9-0.7,3.6-1.4,5.4c-0.6,1.7-1.5,3.3-2.5,4.6
				c-1.1,1.3-2.4,2.2-4.1,2.5c-0.9,0.2-1.9,0.3-3.1,0.3c-1.1,0-2.5,0-4,0c-0.2,0-0.5,0-0.9-0.1c-0.4-0.1-0.7-0.2-1-0.4
				c-0.3-0.2-0.6-0.5-0.8-0.8c-0.2-0.4-0.3-0.8-0.3-1.4v-15v-15.2c0-0.6,0.1-1,0.3-1.4c0.2-0.3,0.5-0.6,0.8-0.8
				c0.3-0.2,0.7-0.3,1-0.4C215.4,531.1,215.7,531,215.9,531z M226.1,548.8c0-1.5-0.1-3-0.4-4.5c-0.2-1.4-0.6-2.7-1-3.9
				c-0.5-1.1-1-2-1.7-2.7c-0.6-0.7-1.4-1-2.2-1h-1.4c-0.4,0-0.7,0.1-0.9,0.3c-0.2,0.2-0.4,0.5-0.5,0.8s-0.2,0.7-0.2,1
				c0,0.4,0,0.7,0,1v9v9c0,0.3,0,0.6,0,1c0,0.4,0.1,0.7,0.2,1c0.1,0.3,0.3,0.6,0.5,0.8c0.2,0.2,0.5,0.3,0.9,0.3h1.4
				c0.8,0,1.5-0.3,2.2-1c0.6-0.7,1.2-1.6,1.7-2.8s0.8-2.5,1-3.9C226,551.8,226.1,550.3,226.1,548.8z"/>
			<path class="st0" d="M256.7,547.1c-0.4-0.8-1-1.9-1.7-3.3c-0.7-1.3-1.4-2.6-2-3.9c-0.7-1.3-1.3-2.4-1.8-3.4c-0.5-1-0.9-1.6-1-1.9
				c-0.4-0.7-0.5-1.4-0.2-2.1c0.3-0.6,0.7-1.1,1.2-1.4c0.5-0.3,1.1-0.3,1.8-0.2c0.6,0.2,1.2,0.6,1.6,1.4l3.7,7.1
				c0.5,0.9,1.1,1.4,1.7,1.5c0.6,0.2,1.2-0.3,1.8-1.5l3.7-7.2c0.4-0.7,0.9-1.2,1.5-1.4c0.6-0.2,1.2-0.1,1.8,0.2
				c0.6,0.3,1,0.7,1.2,1.4s0.2,1.3-0.2,2.1c-0.1,0.2-0.4,0.9-0.9,1.9c-0.5,1-1.1,2.1-1.8,3.4c-0.7,1.3-1.4,2.5-2,3.9
				c-0.7,1.3-1.2,2.4-1.7,3.2c-0.2,0.5-0.4,1-0.6,1.7c-0.2,0.6-0.3,1.2-0.3,1.7V564c0,0.8-0.3,1.5-0.8,1.9c-0.5,0.4-1.1,0.6-1.7,0.6
				s-1.2-0.2-1.7-0.6c-0.5-0.4-0.8-1.1-0.8-2v-13.6C257.6,549.2,257.3,548.1,256.7,547.1z"/>
			<path class="st0" d="M291.1,557.7c0,1.9-0.4,3.6-1.2,4.9c-0.8,1.3-1.9,2.3-3.1,3s-2.6,1-4,1c-1.4,0-2.8-0.3-4-0.9
				c-1.2-0.6-2.3-1.6-3.1-2.9c-0.8-1.3-1.3-2.9-1.3-4.9c0-1.5-0.1-3-0.1-4.5s0-3,0-4.5c0-1.6,0-3.1,0-4.6c0-1.5,0-3.1,0.1-4.6
				c0-1.9,0.5-3.6,1.3-4.8c0.8-1.3,1.9-2.3,3.1-2.9c1.2-0.6,2.6-0.9,4-0.9c1.4,0,2.8,0.4,4,1c1.2,0.7,2.3,1.6,3.1,3
				c0.8,1.3,1.2,2.9,1.2,4.9v9V557.7z M286,548.6v-9.3c0-1.2-0.4-2-1.1-2.6c-0.7-0.6-1.5-0.9-2.4-0.8c-0.9,0-1.6,0.3-2.3,1
				c-0.7,0.6-1,1.6-1,3v8.9v9c0,1.3,0.3,2.3,1,3c0.7,0.6,1.5,1,2.3,1c0.9,0,1.7-0.3,2.4-0.8c0.7-0.6,1.1-1.4,1.1-2.6V548.6z"/>
			<path class="st0" d="M313.4,557.7c0,1.9-0.4,3.6-1.2,4.9c-0.8,1.3-1.8,2.3-3.1,3c-1.2,0.7-2.6,1-4,1c-1.4,0-2.8-0.3-4-0.9
				c-1.2-0.6-2.3-1.6-3.1-2.9c-0.8-1.3-1.3-2.9-1.3-4.9c-0.1-4.1-0.1-8.2-0.1-12.2c0-4,0-8.1,0-12.2c0-0.9,0.3-1.5,0.8-2
				c0.5-0.4,1.1-0.7,1.7-0.7c0.6,0,1.2,0.2,1.7,0.6c0.5,0.4,0.8,1.1,0.8,1.9v24.4c0,0.9,0.1,1.6,0.4,2.2c0.3,0.6,0.7,1,1.2,1.3
				c0.5,0.3,1.1,0.4,1.7,0.5c0.6,0,1.2-0.1,1.7-0.4c0.5-0.3,1-0.7,1.3-1.2c0.3-0.5,0.5-1.2,0.5-1.9c0-4.1,0-8.2,0-12.3
				c0-4.1,0-8.2,0-12.3c0-0.9,0.3-1.5,0.8-2c0.5-0.4,1.1-0.6,1.7-0.6s1.2,0.2,1.7,0.6c0.5,0.4,0.8,1.1,0.8,1.9c0,4.1,0,8.1,0,12.1
				S313.4,553.7,313.4,557.7z"/>
			<path class="st0" d="M319.3,548.8v-14.7c0-0.5,0.1-0.9,0.3-1.3s0.5-0.7,0.8-1c0.3-0.3,0.6-0.5,1-0.6s0.7-0.2,1-0.2h7.4
				c1.2,0,2.2,0.3,3.1,0.9c0.9,0.6,1.7,1.5,2.3,2.5c0.6,1,1.1,2.2,1.5,3.5c0.4,1.3,0.6,2.6,0.6,4c0,1,0,1.9-0.1,2.6
				s-0.3,1.5-0.5,2.1c-0.2,0.7-0.5,1.4-0.9,2s-0.8,1.4-1.3,2.2c-0.2,0.3-0.4,0.6-0.6,1c-0.2,0.4-0.3,0.7-0.4,1.2
				c-0.1,0.4-0.1,0.9,0,1.4c0.1,0.5,0.3,1,0.6,1.5l3.2,7.2c0.4,0.7,0.4,1.4,0.1,2c-0.3,0.6-0.7,1-1.3,1.3s-1.2,0.3-1.8,0.1
				c-0.6-0.2-1.2-0.6-1.5-1.4l-4.6-9.7c-0.3-0.5-0.6-0.9-1.1-1.1c-0.4-0.2-0.9-0.3-1.4-0.2s-0.9,0.3-1.2,0.7
				c-0.3,0.4-0.5,0.9-0.5,1.6v7.8c0,0.8-0.3,1.5-0.8,1.9c-0.5,0.4-1.1,0.6-1.7,0.6c-0.6,0-1.2-0.2-1.7-0.7c-0.5-0.4-0.8-1.1-0.8-2
				L319.3,548.8z M324.2,545.5c0,0.6,0.2,1.2,0.7,1.7c0.5,0.5,1.1,0.7,1.8,0.6h2.1c0.6,0,1.2-0.2,1.7-0.5c0.5-0.4,0.9-0.8,1.2-1.4
				c0.3-0.6,0.6-1.2,0.7-2c0.2-0.7,0.2-1.5,0.2-2.3c0-0.7-0.1-1.5-0.3-2.2c-0.2-0.7-0.5-1.3-0.8-1.9s-0.8-1-1.4-1.3
				c-0.5-0.3-1.2-0.5-1.9-0.5h-1.6c-0.6,0-1.1,0.2-1.6,0.6c-0.5,0.4-0.8,1-0.8,1.8V545.5z"/>
			<path class="st0" d="M359.7,536.9c0.3,1,0.3,1.8-0.1,2.4c-0.4,0.6-0.9,1-1.5,1.2c-0.6,0.2-1.3,0.2-1.9-0.1
				c-0.6-0.2-1-0.8-1.2-1.6c-0.2-0.6-0.5-1.1-0.9-1.5c-0.4-0.4-0.9-0.7-1.5-0.9c-0.6-0.2-1.1-0.2-1.8-0.1c-0.6,0.1-1.2,0.3-1.6,0.7
				c-0.5,0.4-0.8,0.9-1.1,1.6s-0.3,1.6-0.2,2.6c0.1,0.6,0.4,1.2,0.9,1.8c0.5,0.6,1.1,1.1,1.9,1.7c0.7,0.6,1.6,1.2,2.4,1.8
				s1.7,1.2,2.5,1.9c0.8,0.6,1.5,1.3,2.2,2.1c0.7,0.7,1.1,1.5,1.5,2.4c0.3,0.9,0.5,1.8,0.5,2.7c0.1,0.9,0,1.9-0.2,2.8
				s-0.5,1.8-0.9,2.7c-0.4,0.8-0.9,1.6-1.5,2.2c-1.3,1.4-2.7,2.4-4.5,2.9s-3.4,0.6-5,0.3c-1.6-0.3-3.1-1.1-4.5-2.2s-2.2-2.7-2.7-4.7
				c-0.3-1-0.2-1.8,0.2-2.5c0.4-0.7,0.9-1.1,1.6-1.3c0.6-0.2,1.3-0.2,1.9,0.1c0.6,0.3,1.1,0.8,1.2,1.6c0.2,1.1,0.7,2,1.3,2.6
				c0.6,0.6,1.3,1.1,2.1,1.2c0.8,0.2,1.5,0.1,2.3-0.1c0.8-0.3,1.5-0.8,2.1-1.6c0.5-0.7,0.8-1.4,0.9-2.3c0.1-0.8,0.1-1.7-0.1-2.4
				c-0.2-0.7-0.6-1.4-1.2-1.9c-0.6-0.6-1.3-1.1-2.2-1.7c-0.8-0.5-1.7-1.1-2.6-1.7s-1.8-1.2-2.6-2c-0.8-0.7-1.5-1.6-2-2.6
				c-0.5-1-0.8-2.2-0.9-3.5c-0.1-1.9,0.2-3.6,0.9-5c0.7-1.4,1.6-2.5,2.7-3.4c1.1-0.8,2.4-1.4,3.7-1.7s2.7-0.3,4.1,0.1
				s2.5,0.9,3.5,1.9C358.4,534.1,359.2,535.3,359.7,536.9z"/>
			<path class="st0" d="M368.4,530.8h9.6c0.7,0,1.3,0.2,1.7,0.7c0.4,0.5,0.5,1,0.5,1.7c0,0.6-0.2,1.2-0.6,1.7
				c-0.4,0.5-0.9,0.8-1.6,0.8h-5.4c-0.6,0-1.2,0.2-1.7,0.5c-0.5,0.4-0.8,0.9-0.8,1.7v5.8c0,0.7,0.1,1.2,0.4,1.7
				c0.3,0.4,0.8,0.6,1.4,0.6h4.1c0.7,0,1.3,0.2,1.7,0.7c0.4,0.5,0.6,1,0.6,1.7c0,0.6-0.2,1.2-0.6,1.7c-0.4,0.5-0.9,0.8-1.6,0.8H372
				c-0.5,0-0.9,0.2-1.2,0.5c-0.4,0.3-0.5,0.9-0.5,1.7c0.1,1,0.1,1.9,0.1,2.8c0,0.9-0.1,1.9-0.1,2.9c0,0.6,0.1,1.3,0.4,1.9
				c0.3,0.6,0.9,0.9,1.9,0.9h5.5c0.7,0,1.3,0.2,1.7,0.7c0.4,0.5,0.5,1,0.5,1.7c0,0.6-0.2,1.2-0.6,1.7c-0.4,0.5-0.9,0.8-1.7,0.8h-9.6
				c-0.7,0-1.3-0.1-1.7-0.3c-0.4-0.2-0.7-0.5-0.9-0.8s-0.3-0.7-0.4-1.1c-0.1-0.4-0.1-0.9-0.1-1.3v-15.5c0-2.3,0-4.6,0-6.9
				c0-2.3,0-4.6,0.1-6.9c0-1.2,0.3-1.9,0.9-2.3C366.8,531,367.5,530.8,368.4,530.8z"/>
			<path class="st0" d="M390.8,558.8c0,0.6,0.1,1.3,0.4,1.9c0.3,0.6,0.9,0.9,1.9,0.9h5.5c0.7,0,1.3,0.2,1.7,0.7
				c0.4,0.5,0.6,1,0.6,1.7c0,0.6-0.2,1.2-0.6,1.7c-0.4,0.5-0.9,0.8-1.7,0.8h-9.7c-0.7,0-1.3-0.1-1.7-0.3c-0.4-0.2-0.7-0.5-0.9-0.8
				s-0.3-0.7-0.4-1.1c0-0.4-0.1-0.9-0.1-1.3v-15.5v-14.3c0-0.9,0.3-1.5,0.8-2c0.5-0.4,1.1-0.7,1.7-0.7s1.2,0.2,1.7,0.6
				c0.5,0.4,0.8,1.1,0.8,1.9v14.3V558.8z"/>
			<path class="st0" d="M408.5,530.9h9.6c0.7,0,1.3,0.2,1.7,0.7s0.6,1,0.6,1.7s-0.2,1.2-0.6,1.7c-0.4,0.5-0.9,0.8-1.7,0.8h-5.4
				c-0.6,0-1.2,0.2-1.7,0.5c-0.5,0.4-0.8,0.9-0.8,1.7v5.8c0,0.6,0.1,1.2,0.4,1.7c0.3,0.5,0.8,0.7,1.5,0.6h4.1c0.7,0,1.3,0.2,1.7,0.7
				c0.4,0.5,0.5,1,0.5,1.7s-0.2,1.2-0.5,1.7c-0.4,0.5-0.9,0.8-1.7,0.8h-4.2c-0.5,0-0.9,0.2-1.2,0.5c-0.4,0.3-0.5,0.9-0.5,1.7V564
				c0,0.9-0.3,1.5-0.8,2c-0.5,0.4-1.1,0.6-1.7,0.6s-1.2-0.2-1.7-0.6c-0.5-0.4-0.8-1.1-0.8-1.9v-16.5c0-2.3,0-4.6,0-6.9
				c0-2.3,0-4.6,0-6.9c0-1.2,0.3-1.9,0.9-2.3S407.6,530.9,408.5,530.9z"/>
			<path class="st0" d="M452.6,534.1l4.3,18.4l2.7,11.5c0.1,0.7,0,1.3-0.4,1.8c-0.4,0.5-0.9,0.8-1.5,0.9c-0.6,0.1-1.2,0-1.8-0.3
				c-0.6-0.3-0.9-0.9-1.1-1.8l-0.5-2.4c-0.1-0.5-0.3-1-0.7-1.5c-0.4-0.4-0.9-0.6-1.6-0.6H447c-0.5,0-1,0.1-1.5,0.3
				c-0.5,0.2-0.9,0.8-1.1,1.6l-0.9,3.1c-0.2,0.7-0.5,1.1-1.1,1.4c-0.6,0.2-1.1,0.3-1.7,0.2c-0.6-0.1-1-0.5-1.4-0.9
				c-0.4-0.5-0.5-1.1-0.3-2l7-29.5c0.3-1.1,0.8-1.9,1.5-2.5c0.7-0.5,1.4-0.8,2.1-0.7c0.7,0,1.4,0.3,2,0.9
				C452.1,532.4,452.5,533.1,452.6,534.1z M448.3,544.8c-0.3,1.4-0.5,2.7-0.8,4c-0.2,1.3-0.5,2.7-0.8,4c-0.1,0.5-0.1,0.9,0.1,1.3
				s0.6,0.6,1.2,0.6h2.9c0.6,0,1-0.2,1.2-0.6s0.2-0.8,0.1-1.2l-1.7-8c-0.1-0.3-0.2-0.6-0.4-0.8c-0.2-0.2-0.4-0.3-0.6-0.3
				c-0.2,0-0.5,0-0.7,0.2C448.5,544.1,448.4,544.4,448.3,544.8z"/>
			<path class="st0" d="M467,547.4l-0.1-8.9c0-0.9-0.3-1.5-0.7-1.8s-1-0.4-1.7-0.3h-2.3c-0.9,0-1.5-0.3-1.9-0.8
				c-0.4-0.6-0.7-1.2-0.7-1.9c0-0.7,0.2-1.3,0.6-1.9c0.4-0.6,1.1-0.9,2-0.9h14.5c0.9,0,1.5,0.3,2,0.8c0.4,0.6,0.6,1.2,0.6,1.9
				c0,0.7-0.2,1.3-0.6,1.9c-0.4,0.6-1.1,0.8-1.9,0.8l-2.9,0.1c-0.7,0-1.3,0.1-1.6,0.4c-0.3,0.3-0.4,0.9-0.4,1.7v8.6V564
				c0,0.8-0.3,1.5-0.8,1.9c-0.5,0.4-1.1,0.6-1.7,0.6c-0.6,0-1.2-0.2-1.7-0.6c-0.5-0.4-0.8-1.1-0.8-2V547.4z"/>
			<path class="st0" d="M502.4,543.2c0,0.6,0.1,1.2,0.5,1.8c0.4,0.5,0.9,0.8,1.5,0.8h3.5c0.6,0,1.1-0.3,1.5-0.8
				c0.4-0.5,0.5-1.1,0.5-1.8v-9.7c0-0.9,0.3-1.5,0.8-2c0.5-0.4,1.1-0.7,1.7-0.7s1.2,0.2,1.7,0.6c0.5,0.4,0.8,1.1,0.8,1.9v14.1V564
				c0,0.8-0.3,1.5-0.8,1.9c-0.5,0.4-1.1,0.6-1.7,0.6s-1.2-0.2-1.7-0.7c-0.5-0.4-0.8-1.1-0.8-2v-10.3c0-0.8-0.3-1.4-0.7-1.8
				c-0.4-0.4-0.9-0.6-1.4-0.6h-3.3c-0.5,0-0.9,0.2-1.4,0.6c-0.4,0.4-0.7,1-0.7,1.8v10.2c0,0.9-0.3,1.5-0.8,2
				c-0.5,0.4-1.1,0.7-1.7,0.7c-0.6,0-1.2-0.2-1.7-0.6c-0.5-0.4-0.8-1.1-0.8-1.9v-16.5v-14.1c0-0.8,0.3-1.5,0.8-1.9
				c0.5-0.4,1.1-0.6,1.7-0.6c0.6,0,1.2,0.2,1.7,0.7c0.5,0.4,0.8,1.1,0.8,2V543.2z"/>
			<path class="st0" d="M537.2,557.7c0,1.9-0.4,3.6-1.2,4.9c-0.8,1.3-1.9,2.3-3.1,3s-2.6,1-4,1c-1.4,0-2.8-0.3-4-0.9
				c-1.2-0.6-2.3-1.6-3.1-2.9c-0.8-1.3-1.3-2.9-1.3-4.9c0-1.5-0.1-3-0.1-4.5s0-3,0-4.5c0-1.6,0-3.1,0-4.6c0-1.5,0-3.1,0.1-4.6
				c0-1.9,0.5-3.6,1.3-4.8c0.8-1.3,1.9-2.3,3.1-2.9c1.2-0.6,2.6-0.9,4-0.9c1.4,0,2.8,0.4,4,1c1.2,0.7,2.3,1.6,3.1,3s1.2,2.9,1.2,4.9
				v9V557.7z M532.1,548.6v-9.3c0-1.2-0.4-2-1.1-2.6c-0.7-0.6-1.5-0.9-2.4-0.8c-0.9,0-1.6,0.3-2.3,1c-0.7,0.6-1,1.6-1,3v8.9v9
				c0,1.3,0.3,2.3,1,3c0.7,0.6,1.5,1,2.3,1c0.9,0,1.7-0.3,2.4-0.8c0.7-0.6,1.1-1.4,1.1-2.6V548.6z"/>
			<path class="st0" d="M542.9,547.3v-13.8c0-0.7,0.2-1.3,0.6-1.8c0.4-0.4,0.9-0.7,1.4-0.8c0.5-0.1,1.1,0,1.6,0.3
				c0.5,0.3,0.9,0.7,1.2,1.4l5.2,12.5c0.5,1.2,1,1.9,1.5,1.9c0.4,0.1,0.9-0.6,1.5-2l5-12.2c0.3-0.7,0.7-1.3,1.2-1.6
				c0.5-0.3,1-0.4,1.6-0.3c0.5,0.1,1,0.3,1.4,0.7c0.4,0.4,0.6,0.9,0.7,1.5v0.5v13.8v16.7c0,0.9-0.3,1.5-0.8,2
				c-0.5,0.4-1.1,0.7-1.7,0.7s-1.2-0.2-1.7-0.6c-0.5-0.4-0.8-1.1-0.8-1.9v-14.2c0-0.4,0-0.8-0.1-0.9c-0.1-0.2-0.3-0.3-0.4-0.3
				c-0.2,0-0.3,0-0.5,0.2c-0.2,0.1-0.3,0.3-0.4,0.5c-0.5,1.2-0.9,2.3-1.3,3.2s-0.8,2-1.3,3.2c-0.2,0.6-0.6,1.1-1,1.4
				c-0.4,0.3-0.9,0.5-1.4,0.5c-0.5,0-0.9-0.1-1.4-0.4c-0.5-0.3-0.8-0.7-1-1.4l-2.6-6.3c-0.1-0.3-0.3-0.5-0.5-0.6
				c-0.2-0.1-0.4-0.1-0.5,0c-0.2,0.1-0.3,0.2-0.4,0.4c-0.1,0.2-0.1,0.3-0.1,0.5V564c0,0.8-0.3,1.5-0.8,1.9c-0.5,0.4-1.1,0.6-1.7,0.6
				s-1.2-0.2-1.7-0.7c-0.5-0.4-0.8-1.1-0.8-2V547.3z"/>
			<path class="st0" d="M574.2,530.8h9.6c0.7,0,1.3,0.2,1.7,0.7c0.4,0.5,0.5,1,0.5,1.7c0,0.6-0.2,1.2-0.6,1.7
				c-0.4,0.5-0.9,0.8-1.6,0.8h-5.4c-0.6,0-1.2,0.2-1.7,0.5c-0.5,0.4-0.8,0.9-0.8,1.7v5.8c0,0.7,0.1,1.2,0.4,1.7
				c0.3,0.4,0.8,0.6,1.4,0.6h4.1c0.7,0,1.3,0.2,1.7,0.7c0.4,0.5,0.6,1,0.6,1.7c0,0.6-0.2,1.2-0.6,1.7c-0.4,0.5-0.9,0.8-1.6,0.8h-4.2
				c-0.5,0-0.9,0.2-1.2,0.5c-0.4,0.3-0.5,0.9-0.5,1.7c0.1,1,0.1,1.9,0.1,2.8c0,0.9-0.1,1.9-0.1,2.9c0,0.6,0.1,1.3,0.4,1.9
				c0.3,0.6,0.9,0.9,1.9,0.9h5.5c0.7,0,1.3,0.2,1.7,0.7c0.4,0.5,0.5,1,0.5,1.7c0,0.6-0.2,1.2-0.6,1.7c-0.4,0.5-0.9,0.8-1.7,0.8h-9.6
				c-0.7,0-1.3-0.1-1.7-0.3c-0.4-0.2-0.7-0.5-0.9-0.8c-0.2-0.3-0.3-0.7-0.4-1.1c-0.1-0.4-0.1-0.9-0.1-1.3v-15.5c0-2.3,0-4.6,0-6.9
				c0-2.3,0-4.6,0.1-6.9c0-1.2,0.3-1.9,0.9-2.3C572.6,531,573.3,530.8,574.2,530.8z"/>
		</g>
	</g>
</g>
<g id="horizontal_lines">
	<line id="top_2_" class="st1" x1="3.9" y1="386.4" x2="746" y2="386.4"/>
	<line id="bottom_2_" class="st2" x1="3" y1="598.1" x2="746" y2="598.1"/>
</g>
<g id="logo">
	<g id="Triangle">
	</g>
	<g id="sun_2_">
	</g>
	<g id="river_1_">
	</g>
	<g id="trees">
	</g>
	<g id="logo_1_">
		<g>
			<path id="triangle_inside" class="st3" d="M226.6,386.2l-100-97c-4.1-4.1-4.1-10.7,0-14.8l244-244c2-2,4.6-3.1,7.4-3.1
				s5.4,1.1,7.4,3.1l244,244c4.1,4.1,4.1,10.7,0,14.8l-97.1,97l-3.5-3.5l97.1-97c2.1-2.1,2.1-5.6,0-7.7l-244-244
				c-1-1-2.4-1.6-3.9-1.6s-2.8,0.6-3.9,1.6l-244,244c-2.1,2.1-2.1,5.6,0,7.7l99.9,96.9L226.6,386.2z"/>
			<path id="triangle_outside" class="st3" d="M198.1,386.9l-98.3-96.4c-2.3-2.3-3.6-5.4-3.6-8.7s1.3-6.4,3.6-8.7L369.3,3.6
				c4.8-4.8,12.6-4.8,17.4,0l269.5,269.5c4.8,4.8,4.8,12.6,0,17.3l-93.9,96.4l-5-4.9l93.9-96.4c2.1-2.1,2.1-5.4,0-7.5L381.7,8.5
				c-1-1-2.3-1.5-3.7-1.5s-2.7,0.5-3.7,1.5L104.7,278.1c-1,1-1.5,2.3-1.5,3.7s0.5,2.7,1.5,3.7l98.3,96.4L198.1,386.9z"/>
			<path id="sun" class="st3" d="M340.1,185.7c-5.5-8-8.3-17.5-8.3-27.4c0-26.1,20.3-47.4,45.2-47.4s45.2,21.2,45.2,47.4
				c0,9.9-2.9,19.3-8.3,27.4l-4.1-2.8c4.9-7.2,7.5-15.7,7.5-24.6c0-23.4-18.1-42.4-40.2-42.4s-40.2,19-40.2,42.4
				c0,8.9,2.6,17.4,7.5,24.6L340.1,185.7z"/>
			<g id="river_2_">
				<path class="st3" d="M327.4,328.3h-88.4c-1.7,0-3-1.3-3-3s1.3-3,3-3h88.4c1.7,0,3,1.3,3,3S329,328.3,327.4,328.3z"/>
				<path class="st3" d="M337.8,346.8h-65.3c-1.7,0-3-1.3-3-3s1.3-3,3-3h65.3c1.7,0,3,1.3,3,3S339.4,346.8,337.8,346.8z"/>
				<path class="st3" d="M406.3,346.8h-50.5c-1.7,0-3-1.3-3-3s1.3-3,3-3h50.5c1.7,0,3,1.3,3,3S408,346.8,406.3,346.8z"/>
				<path class="st3" d="M509.7,328.3H341.3c-1.7,0-3-1.3-3-3s1.3-3,3-3h168.3c1.7,0,3,1.3,3,3S511.3,328.3,509.7,328.3z"/>
				<path class="st3" d="M484.2,346.8h-55.8c-1.7,0-3-1.3-3-3s1.3-3,3-3h55.8c1.7,0,3,1.3,3,3S485.8,346.8,484.2,346.8z"/>
				<path class="st3" d="M370.4,366.2h-65.3c-1.7,0-3-1.3-3-3s1.3-3,3-3h65.3c1.7,0,3,1.3,3,3S372.1,366.2,370.4,366.2z"/>
				<path class="st3" d="M450.5,366.2h-65.3c-1.7,0-3-1.3-3-3s1.3-3,3-3h65.3c1.7,0,3,1.3,3,3S452.1,366.2,450.5,366.2z"/>
			</g>
			<g id="Left_trees_1_">
				<path class="st3" d="M493,309.2c-0.6,0.5-0.7,1.4-0.2,2c0.5,0.6,1.4,0.7,2,0.2l3-2.6v12.6c0,0.8,0.6,1.4,1.4,1.4
					c0.8,0,1.4-0.6,1.4-1.4v-12.6l3,2.6c0.3,0.2,0.6,0.3,0.9,0.3c0.4,0,0.8-0.2,1.1-0.5c0.5-0.6,0.4-1.5-0.2-2l-4.9-4.1v-3.2l3,2.6
					c0.3,0.2,0.6,0.3,0.9,0.3c0.4,0,0.8-0.2,1.1-0.5c0.5-0.6,0.4-1.5-0.2-2l-4.9-4.1v-3.2l3,2.6c0.3,0.2,0.6,0.3,0.9,0.3
					c0.4,0,0.8-0.2,1.1-0.5c0.5-0.6,0.4-1.5-0.2-2l-5.4-4.5c-0.5-0.4-1.3-0.4-1.8,0l-5.4,4.5c-0.6,0.5-0.7,1.4-0.2,2
					c0.5,0.6,1.4,0.7,2,0.2l3-2.6v3.2l-4.9,4.1c-0.6,0.5-0.7,1.4-0.2,2c0.5,0.6,1.4,0.7,2,0.2l3-2.6v3.2L493,309.2z"/>
				<path class="st3" d="M467.3,305.5c-0.8,0.6-0.9,1.8-0.2,2.6c0.6,0.8,1.8,0.9,2.6,0.2l3.9-3.3v16c0,1,0.8,1.8,1.8,1.8
					c1,0,1.8-0.8,1.8-1.8v-16l3.9,3.3c0.3,0.3,0.8,0.4,1.2,0.4c0.5,0,1-0.2,1.4-0.6c0.6-0.8,0.5-1.9-0.2-2.6l-6.2-5.2v-4.1l3.9,3.3
					c0.3,0.3,0.8,0.4,1.2,0.4c0.5,0,1-0.2,1.4-0.6c0.6-0.8,0.5-1.9-0.2-2.6l-6.2-5.2v-4.1l3.9,3.3c0.3,0.3,0.8,0.4,1.2,0.4
					c0.5,0,1-0.2,1.4-0.6c0.6-0.8,0.5-1.9-0.2-2.6l-6.8-5.8c-0.7-0.6-1.7-0.6-2.3,0l-6.8,5.8c-0.8,0.6-0.9,1.8-0.2,2.6
					c0.6,0.8,1.8,0.9,2.6,0.2l3.9-3.3v4.1l-6.2,5.2c-0.8,0.6-0.9,1.8-0.2,2.6c0.6,0.8,1.8,0.9,2.6,0.2l3.9-3.3v4.1L467.3,305.5z"/>
				<path class="st3" d="M446.6,309.2c-0.6,0.5-0.7,1.4-0.2,2c0.5,0.6,1.4,0.7,2,0.2l3-2.6v12.6c0,0.8,0.6,1.4,1.4,1.4
					s1.4-0.6,1.4-1.4v-12.6l3,2.6c0.3,0.2,0.6,0.3,0.9,0.3c0.4,0,0.8-0.2,1.1-0.5c0.5-0.6,0.4-1.5-0.2-2l-4.9-4.1v-3.2l3,2.6
					c0.3,0.2,0.6,0.3,0.9,0.3c0.4,0,0.8-0.2,1.1-0.5c0.5-0.6,0.4-1.5-0.2-2l-4.9-4.1v-3.2l3,2.6c0.3,0.2,0.6,0.3,0.9,0.3
					c0.4,0,0.8-0.2,1.1-0.5c0.5-0.6,0.4-1.5-0.2-2l-5.4-4.5c-0.5-0.4-1.3-0.4-1.8,0l-5.4,4.5c-0.6,0.5-0.7,1.4-0.2,2
					c0.5,0.6,1.4,0.7,2,0.2l3-2.6v3.2l-4.9,4.1c-0.6,0.5-0.7,1.4-0.2,2c0.5,0.6,1.4,0.7,2,0.2l3-2.6v3.2L446.6,309.2z"/>
			</g>
			<g id="Right_tree_4_">
				<path class="st3" d="M401.1,307.7c-0.7,0.6-0.8,1.6-0.2,2.2c0.6,0.7,1.6,0.8,2.2,0.2l3.4-2.9v14c0,0.9,0.7,1.6,1.6,1.6
					c0.9,0,1.6-0.7,1.6-1.6v-14l3.4,2.9c0.3,0.3,0.7,0.4,1,0.4c0.5,0,0.9-0.2,1.2-0.6c0.6-0.7,0.5-1.7-0.2-2.2l-5.4-4.6v-3.6
					l3.4,2.9c0.3,0.3,0.7,0.4,1,0.4c0.5,0,0.9-0.2,1.2-0.6c0.6-0.7,0.5-1.7-0.2-2.2l-5.4-4.6v-3.6l3.4,2.9c0.3,0.3,0.7,0.4,1,0.4
					c0.5,0,0.9-0.2,1.2-0.6c0.6-0.7,0.5-1.7-0.2-2.2l-6-5.1c-0.6-0.5-1.5-0.5-2,0l-6,5.1c-0.7,0.6-0.8,1.6-0.2,2.2
					c0.6,0.7,1.6,0.8,2.2,0.2l3.4-2.9v3.6l-5.4,4.6c-0.7,0.6-0.8,1.6-0.2,2.2c0.6,0.7,1.6,0.8,2.2,0.2l3.4-2.9v3.6L401.1,307.7z"/>
				<path class="st3" d="M372.5,303.6c-0.9,0.7-1,2-0.2,2.8c0.7,0.9,2,1,2.8,0.2l4.3-3.6v17.8c0,1.1,0.9,2,2,2s2-0.9,2-2V303
					l4.3,3.6c0.4,0.3,0.8,0.5,1.3,0.5c0.6,0,1.1-0.2,1.5-0.7c0.7-0.9,0.6-2.1-0.2-2.8l-6.9-5.8v-4.5l4.3,3.6
					c0.4,0.3,0.8,0.5,1.3,0.5c0.6,0,1.1-0.2,1.5-0.7c0.7-0.9,0.6-2.1-0.2-2.8l-6.9-5.8v-4.5l4.3,3.6c0.4,0.3,0.8,0.5,1.3,0.5
					c0.6,0,1.1-0.2,1.5-0.7c0.7-0.9,0.6-2.1-0.2-2.8l-7.6-6.4c-0.8-0.6-1.8-0.6-2.6,0l-7.6,6.4c-0.9,0.7-1,2-0.2,2.8
					c0.7,0.9,2,1,2.8,0.2l4.3-3.6v4.5l-6.9,5.8c-0.9,0.7-1,2-0.2,2.8c0.7,0.9,2,1,2.8,0.2l4.3-3.6v4.5L372.5,303.6z"/>
				<path class="st3" d="M349.4,307.7c-0.7,0.6-0.8,1.6-0.2,2.2c0.6,0.7,1.6,0.8,2.2,0.2l3.4-2.9v14c0,0.9,0.7,1.6,1.6,1.6
					c0.9,0,1.6-0.7,1.6-1.6v-14l3.4,2.9c0.3,0.3,0.7,0.4,1,0.4c0.5,0,0.9-0.2,1.2-0.6c0.6-0.7,0.5-1.7-0.2-2.2l-5.4-4.6v-3.6
					l3.4,2.9c0.3,0.3,0.7,0.4,1,0.4c0.5,0,0.9-0.2,1.2-0.6c0.6-0.7,0.5-1.7-0.2-2.2l-5.4-4.6v-3.6l3.4,2.9c0.3,0.3,0.7,0.4,1,0.4
					c0.5,0,0.9-0.2,1.2-0.6c0.6-0.7,0.5-1.7-0.2-2.2l-6-5.1c-0.6-0.5-1.5-0.5-2,0l-6,5.1c-0.7,0.6-0.8,1.6-0.2,2.2
					c0.6,0.7,1.6,0.8,2.2,0.2l3.4-2.9v3.6l-5.4,4.6c-0.7,0.6-0.8,1.6-0.2,2.2c0.6,0.7,1.6,0.8,2.2,0.2l3.4-2.9v3.6L349.4,307.7z"/>
			</g>
			<g id="Right_tree_3_">
				<path class="st3" d="M298.7,307.2c-0.7,0.6-0.8,1.7-0.2,2.4c0.6,0.7,1.7,0.8,2.4,0.2l3.6-3.1v15c0,0.9,0.8,1.7,1.7,1.7
					c0.9,0,1.7-0.8,1.7-1.7v-15l3.6,3.1c0.3,0.3,0.7,0.4,1.1,0.4c0.5,0,1-0.2,1.3-0.6c0.6-0.7,0.5-1.8-0.2-2.4l-5.8-4.9v-3.8
					l3.6,3.1c0.3,0.3,0.7,0.4,1.1,0.4c0.5,0,1-0.2,1.3-0.6c0.6-0.7,0.5-1.8-0.2-2.4l-5.8-4.9v-3.8l3.6,3.1c0.3,0.3,0.7,0.4,1.1,0.4
					c0.5,0,1-0.2,1.3-0.6c0.6-0.7,0.5-1.8-0.2-2.4l-6.4-5.4c-0.6-0.5-1.6-0.5-2.2,0l-6.4,5.4c-0.7,0.6-0.8,1.7-0.2,2.4
					c0.6,0.7,1.7,0.8,2.4,0.2l3.6-3.1v3.8l-5.8,4.9c-0.7,0.6-0.8,1.7-0.2,2.4c0.6,0.7,1.7,0.8,2.4,0.2l3.6-3.1v3.8L298.7,307.2z"/>
				<path class="st3" d="M268.1,302.8c-0.9,0.8-1,2.1-0.3,3c0.8,0.9,2.1,1,3,0.3l4.6-3.9v19c0,1.2,1,2.2,2.2,2.2
					c1.2,0,2.2-1,2.2-2.2v-19l4.6,3.9c0.4,0.3,0.9,0.5,1.4,0.5c0.6,0,1.2-0.3,1.6-0.8c0.8-0.9,0.7-2.3-0.3-3l-7.4-6.2v-4.8l4.6,3.9
					c0.4,0.3,0.9,0.5,1.4,0.5c0.6,0,1.2-0.3,1.6-0.8c0.8-0.9,0.7-2.3-0.3-3l-7.4-6.2v-4.8l4.6,3.9c0.4,0.3,0.9,0.5,1.4,0.5
					c0.6,0,1.2-0.3,1.6-0.8c0.8-0.9,0.7-2.3-0.3-3l-8.1-6.9c-0.8-0.7-2-0.7-2.8,0l-8.1,6.9c-0.9,0.8-1,2.1-0.3,3
					c0.8,0.9,2.1,1,3,0.3l4.6-3.9v4.8l-7.4,6.2c-0.9,0.8-1,2.1-0.3,3c0.8,0.9,2.1,1,3,0.3l4.6-3.9v4.8L268.1,302.8z"/>
				<path class="st3" d="M243.4,307.2c-0.7,0.6-0.8,1.7-0.2,2.4c0.6,0.7,1.7,0.8,2.4,0.2l3.6-3.1v15c0,0.9,0.8,1.7,1.7,1.7
					c0.9,0,1.7-0.8,1.7-1.7v-15l3.6,3.1c0.3,0.3,0.7,0.4,1.1,0.4c0.5,0,1-0.2,1.3-0.6c0.6-0.7,0.5-1.8-0.2-2.4l-5.8-4.9v-3.8
					l3.6,3.1c0.3,0.3,0.7,0.4,1.1,0.4c0.5,0,1-0.2,1.3-0.6c0.6-0.7,0.5-1.8-0.2-2.4l-5.8-4.9v-3.8l3.6,3.1c0.3,0.3,0.7,0.4,1.1,0.4
					c0.5,0,1-0.2,1.3-0.6c0.6-0.7,0.5-1.8-0.2-2.4l-6.4-5.4c-0.6-0.5-1.6-0.5-2.2,0l-6.4,5.4c-0.7,0.6-0.8,1.7-0.2,2.4
					c0.6,0.7,1.7,0.8,2.4,0.2l3.6-3.1v3.8l-5.8,4.9c-0.7,0.6-0.8,1.7-0.2,2.4c0.6,0.7,1.7,0.8,2.4,0.2l3.6-3.1v3.8L243.4,307.2z"/>
			</g>
			<g id="hills_1_">
				<g>
					<path class="st3" d="M627.5,284.2h-79.9c-0.6,0-1.3-0.2-1.7-0.7l-75.3-71.9l-58.2,58.2c-1,1-2.6,1-3.5,0s-1-2.6,0-3.5
						l59.9-59.9c1-1,2.5-1,3.5,0l76.3,72.9h78.9c1.4,0,2.5,1.1,2.5,2.5S628.9,284.2,627.5,284.2z"/>
					<path class="st3" d="M430.4,263.2c-0.6,0-1.3-0.2-1.8-0.7c-1-1-1-2.6,0-3.5l13.7-13.7c1-1,2.6-1,3.5,0c1,1,1,2.6,0,3.5
						l-13.7,13.7C431.7,263,431,263.2,430.4,263.2z"/>
					<path class="st3" d="M509.3,259.7c-0.6,0-1.3-0.2-1.7-0.7l-9.1-8.9c-1-1-1-2.5,0-3.5c1-1,2.5-1,3.5,0l9.1,8.9c1,1,1,2.5,0,3.5
						C510.6,259.4,510,259.7,509.3,259.7z"/>
					<path class="st3" d="M491.6,242.3c-0.6,0-1.3-0.2-1.7-0.7l-17.3-16.8c-1-1-1-2.5,0-3.5c1-1,2.5-1,3.5,0l17.3,16.8
						c1,1,1,2.5,0,3.5C492.9,242.1,492.2,242.3,491.6,242.3z"/>
				</g>
				<g>
					<path class="st3" d="M193,284.8h-64.7c-1.4,0-2.5-1.1-2.5-2.5s1.1-2.5,2.5-2.5H192l76.3-72.9c1-0.9,2.5-0.9,3.5,0l59.9,59.9
						c1,1,1,2.6,0,3.5c-1,1-2.6,1-3.5,0L270,212.2l-75.3,71.9C194.3,284.5,193.7,284.8,193,284.8z"/>
					<path class="st3" d="M291.2,232c-0.7,0-1.4-0.3-1.9-0.8c-0.9-1-0.8-2.6,0.2-3.5l87.6-77.8c1-0.9,2.4-0.8,3.4,0.1l75.9,72
						c1,1,1,2.5,0.1,3.5c-1,1-2.5,1-3.5,0.1l-74.2-70.5l-85.9,76.3C292.4,231.8,291.8,232,291.2,232z"/>
					<path class="st3" d="M314,225.7c-0.6,0-1.3-0.2-1.8-0.7c-1-1-1-2.6,0-3.5l13.7-13.7c1-1,2.6-1,3.5,0c1,1,1,2.6,0,3.5L315.8,225
						C315.3,225.5,314.7,225.7,314,225.7z"/>
					<path class="st3" d="M335.3,206.8c-0.7,0-1.4-0.3-1.9-0.8c-0.9-1-0.8-2.6,0.2-3.5l33.4-29.4c1-0.9,2.6-0.8,3.5,0.2
						c0.9,1,0.8,2.6-0.2,3.5l-33.4,29.4C336.4,206.6,335.8,206.8,335.3,206.8z"/>
					<path class="st3" d="M310.3,263.8c-0.6,0-1.3-0.2-1.8-0.7l-13.7-13.7c-1-1-1-2.6,0-3.5c1-1,2.6-1,3.5,0l13.7,13.7
						c1,1,1,2.6,0,3.5C311.6,263.6,310.9,263.8,310.3,263.8z"/>
					<path class="st3" d="M231.3,260.3c-0.7,0-1.3-0.3-1.8-0.8c-1-1-0.9-2.6,0-3.5l9.1-8.9c1-1,2.6-0.9,3.5,0s0.9,2.6,0,3.5
						l-9.1,8.9C232.6,260,232,260.3,231.3,260.3z"/>
					<path class="st3" d="M249.1,242.9c-0.7,0-1.3-0.3-1.8-0.8c-1-1-0.9-2.6,0-3.5l17.3-16.8c1-1,2.6-0.9,3.5,0c1,1,0.9,2.6,0,3.5
						l-17.3,16.8C250.4,242.7,249.7,242.9,249.1,242.9z"/>
				</g>
			</g>
		</g>
	</g>
</g>
</svg>
