<svg xmlns="http://www.w3.org/2000/svg" viewBox="0 0 749 601.07"><defs><style>.cls-1{fill:#fff;}.cls-2{fill:#ef7a52;stroke:#dd6c4e;stroke-linecap:round;stroke-miterlimit:10;stroke-width:6px;}.cls-3{fill:#dd6c4e;}</style></defs><title>logo_v2</title><g id="Layer_2" data-name="Layer 2"><g id="Brand_name_and_tagline" data-name="Brand name and tagline"><path class="cls-1" d="M36.08,501C23.91,501,3.9,490,3.9,476.3c0-21.88,17.79-58.39,33.7-58.39,12,0,30.66,12.41,30.66,22.12C68.26,459.8,54.1,501,36.08,501Zm8.54-74.07c-13,0-26.21,33.82-26.21,51.84,0,7.83,6.67,13.45,11.82,13.45,14,0,24-37.79,24-54.41C54.22,432,50.59,426.92,44.62,426.92Z"/><path class="cls-1" d="M111.31,492.91c3.51,0,9.83-9,15.56-19.54,0,0,1-2.1,2.58-2.1s4,1.87,4,3.27-1.52,4.1-1.52,4.1c-6.43,11.7-13.34,22.35-21.76,22.35-5.27,0-15.8-4.92-15.8-10.18,0-7.49,6.56-26.21,6.56-30.66,0-2-2-4-3.51-4-2.46,0-9,2.93-10.77,7.37-3,7.73-8.42,31.36-9.12,34.75-.47,1.53-.82,2.7-2.58,2.7-2.69,0-9.59-2.93-9.59-6.09s8.89-38.49,11.35-46.45a4.1,4.1,0,0,1,4-2.46c2,0,7.48,6.91,7.48,6.91S99.61,446,105.69,446c3.51,0,9.83,4.8,9.83,9.13,0,5.5-7.25,28.32-7.25,34.52A4,4,0,0,0,111.31,492.91Z"/><path class="cls-1" d="M146.88,447.16h10.06c.7,0,1.4.36,1.4,1.06,0,1.52-2.22,6.2-4.09,6.2h-9.36c-3.86,13.22-8.19,29.25-8.19,31.94a6.68,6.68,0,0,0,6.55,6.55c3.39,0,9.83-9,15.56-19.54,0,0,1.05-2.1,2.57-2.1s4,1.87,4,3.27-1.52,4.1-1.52,4.1C157.41,490.34,150.5,501,142,501c-8,0-19-5.5-19-11.35,0-3.16,4.21-20,8.19-35.22h-4a1.28,1.28,0,0,1-1.29-1.17c0-1.41,2.11-6.09,4-6.09h3.28c2.22-8.19,4.09-15,4.91-17.55.47-1.63,1.52-2.57,2.46-2.57,2.34,0,10.06,4.45,10.06,6.55a12.49,12.49,0,0,1-.47,2.81Z"/><path class="cls-1" d="M219.18,471.27c1.52,0,4,1.87,4,3.27s-1.52,4.1-1.52,4.1C215.2,490.34,208.3,501,199.88,501c-5.27,0-15-4.45-15.92-7.73,0,0-7,7.73-13,7.73-5.39,0-15.1-7.38-15.1-13.69,0-15.45,13.93-41.31,24.57-41.31,9.36,0,15.33,7,15.33,7,3,0,10.06.82,10.06,3.75,0,4.09-8,23.52-8,32.88,0,1.52,2.1,3.27,3.16,3.27,3.51,0,9.83-9,15.56-19.54C216.61,473.37,217.66,471.27,219.18,471.27Zm-34.4-15.92c-5.85,0-15.21,21.65-15.21,31.95a4.54,4.54,0,0,0,4.1,4.68c2.34,0,8.19-4.1,11.46-10.88,2.34-4.92,6-19.08,6-22.35C191.1,456.88,186.66,455.35,184.78,455.35Z"/><path class="cls-1" d="M261.3,473.37s1.05-2.1,2.57-2.1,4,1.87,4,3.27-1.52,4.1-1.52,4.1C259.9,490.34,253,501,244.57,501c-5.27,0-14.63-4.45-14.63-9,0-9.13,6.2-25.86,6.2-31.24,0-1.29-4.68-2.23-4.68-2.23s-4.09,9.6-9.82,20.13c0,0-1.17,2.1-2.58,2.1-1.64,0-4.09-1.87-4.09-3.15s1.63-4.22,1.63-4.22A192.45,192.45,0,0,0,225,455.12s-4.91-3-4.91-7S225,435,228,435c3.4,0,9.36,3.74,9.36,6.43,0,2.46-1.75,5.38-1.75,8.43s14.86,4.09,14.86,9c0,3.87-6.79,25.28-6.79,31.95a2.1,2.1,0,0,0,2.11,2.1C249.25,492.91,255.57,483.9,261.3,473.37Z"/><path class="cls-1" d="M267.73,448.45a3.76,3.76,0,0,1,3.86-2.46c1.41,0,9.37,4.22,9.37,6.44,0,2.69-9.48,29-9.48,37.21a3.86,3.86,0,0,0,3,3.27c3.39,0,9.71-9,15.68-19.54,0,0,.93-2.1,2.46-2.1s4,1.87,4,3.27-1.63,4.1-1.63,4.1c-6.32,11.7-13.34,22.35-21.77,22.35-5.26,0-15.79-4.92-15.79-10.18C257.44,485.31,265.74,455.71,267.73,448.45Zm5.62-12.63c0-4.45,2.69-12.06,6.55-12.06,2.93,0,8.07,2,8.07,4.92,0,4.44-2.8,12.05-6.55,12.05C278.5,440.73,273.35,438.74,273.35,435.82Z"/><path class="cls-1" d="M312,446c9,0,21.76,8.55,21.76,15.8,0,13.45-10.88,39.2-24.22,39.2-8.19,0-21.64-7.73-21.64-16.15C287.86,468.58,299.44,446,312,446Zm-4.8,46.92c5.85,0,15.8-21.76,15.8-33.58,0-2.57-3.16-4.68-5.5-4.68-6,0-15.56,19.89-15.56,33A5.65,5.65,0,0,0,307.16,492.91Z"/><path class="cls-1" d="M405.56,426.57c-4.68,0-17.55,15.21-17.55,24.92,0,10.18,26.91,11.24,26.91,23.05,0,10.07-14.75,26.45-26.8,26.45-9.71,0-24-10.88-24-17.67,0-3.51,7.72-12.64,10.06-12.64,1.29,0,6.08,3.16,6.08,4.8s-2.22,6.08-2.22,9.13c0,2.57,4.1,8.19,6.9,8.19,6.79,0,14.28-9.6,14.28-15.21,0-10.18-26.91-11.82-26.91-27.27,0-12.87,20.47-32.41,31-32.41,4.92,0,18.49,8.66,18.49,14.51,0,3.4-3.86,10.41-6.79,15.21-.7,1.06-1.28,1.87-2.22,1.87-1.87,0-7.25-2.8-7.25-4.91a9.61,9.61,0,0,1,1.05-3.16c1.64-4.09,3.28-8.07,3.28-11.23C409.89,428.56,407.31,426.57,405.56,426.57Z"/><path class="cls-1" d="M448.73,492.68S437.61,501,433.17,501c-6.09,0-15.21-6.44-15.21-11.35,0-5.5,8-34.05,10.29-41.42.71-1.64,1.52-2.23,2.58-2.23,2.22,0,9.94,4.1,9.94,6.21a10.59,10.59,0,0,1-.47,2.8c-.81,3.05-8.3,28.08-8.3,33.47,0,1.52,2.1,3.27,3.16,3.27,4.68,0,13.33-10.29,14.39-14,2.92-9.47,6.78-24.57,8.3-29.48a2.64,2.64,0,0,1,2.46-2.23c2.34,0,10.06,4.1,10.06,6.21a11,11,0,0,1-.46,2.8c-1.06,3.05-8.9,28.44-8.9,34.64a4,4,0,0,0,3.16,3.27c3.4,0,9.83-9,15.56-19.54,0,0,1.06-2.1,2.58-2.1s4,1.87,4,3.27-1.52,4.1-1.52,4.1C478.21,490.34,471.43,501,463,501,457.74,501,449.55,496.07,448.73,492.68Z"/><path class="cls-1" d="M547.24,492.91c3.51,0,9.83-9,15.57-19.54,0,0,1.05-2.1,2.57-2.1s4,1.87,4,3.27-1.52,4.1-1.52,4.1C561.28,490.34,554.5,501,546.07,501c-5.26,0-15.79-4.92-15.79-10.18,0-5.74,6.55-26.21,6.55-30.66,0-2-2-4-3.51-4-2.81,0-9.36,3.86-10.65,7.73C520.1,471,515,495,514.36,498.29c-.35,1.64-.81,2.7-2.57,2.7-2.81,0-9.59-3.05-9.59-6.21s7.72-32.87,7.72-35.45a3.13,3.13,0,0,0-3.28-3.27c-2.45,0-9.12,3-10.88,7.48-3,7.73-8.42,31.36-9.24,34.75-.47,1.53-.82,2.7-2.58,2.7-2.8,0-9.47-3.05-9.47-6.21s8.89-38.37,11.35-46.33a3.84,3.84,0,0,1,3.86-2.46c2,0,7.6,6.91,7.6,6.91S507.35,446,513.43,446c5.26,0,10.76,7.73,10.76,7.73S535.31,446,541.51,446c3.51,0,10,4.8,10,9.13,0,5.5-7.26,28.32-7.26,34.52A4,4,0,0,0,547.24,492.91Z"/><path class="cls-1" d="M630.43,492.91c3.51,0,9.83-9,15.56-19.54,0,0,1-2.1,2.58-2.1s4,1.87,4,3.27-1.52,4.1-1.52,4.1c-6.55,11.7-13.34,22.35-21.76,22.35-5.27,0-15.8-4.92-15.8-10.18,0-5.74,6.56-26.21,6.56-30.66,0-2-2-4-3.51-4-2.81,0-9.36,3.86-10.65,7.73-2.58,7.13-7.72,31.12-8.31,34.39-.35,1.64-.82,2.7-2.57,2.7-2.81,0-9.6-3.05-9.6-6.21s7.72-32.87,7.72-35.45a3.13,3.13,0,0,0-3.27-3.27c-2.46,0-9.13,3-10.88,7.48-3,7.73-8.43,31.36-9.25,34.75-.46,1.53-.81,2.7-2.57,2.7-2.81,0-9.48-3.05-9.48-6.21s8.9-38.37,11.35-46.33a3.86,3.86,0,0,1,3.86-2.46c2,0,7.61,6.91,7.61,6.91S590.53,446,596.62,446c5.26,0,10.76,7.73,10.76,7.73S618.5,446,624.7,446c3.51,0,9.94,4.8,9.94,9.13,0,5.5-7.25,28.32-7.25,34.52A4,4,0,0,0,630.43,492.91Z"/><path class="cls-1" d="M667.75,446c6,0,16.73,5.85,16.73,10.89,0,5.85-7.49,24.57-15.09,24.57a46.69,46.69,0,0,1-11-1.64,14.52,14.52,0,0,0-.94,5.73c0,2.81,5,7.14,10.07,7.14,6.31,0,15.56-4.33,23.16-19.31,0,0,.94-2.1,2.46-2.1s4,1.87,4,3.27-1.41,4.1-1.41,4.1c-8,15.09-18.13,22.35-27.61,22.35-10.29,0-24.45-7.61-24.45-16.74C643.65,471,656.87,446,667.75,446Zm7.49,12.06c0-1.64-1.87-2.93-3.51-2.93-4.56,0-11.47,13.92-12.52,19.42C670.44,474.54,675.24,461.2,675.24,458.05Z"/><path class="cls-1" d="M735.38,473.37s1-2.1,2.57-2.1,4,1.87,4,3.27-1.52,4.1-1.52,4.1C734,490.34,727.07,501,718.64,501c-5.26,0-14.62-4.45-14.62-9,0-9.13,6.2-25.86,6.2-31.24,0-1.29-4.68-2.23-4.68-2.23s-4.1,9.6-9.83,20.13c0,0-1.17,2.1-2.57,2.1-1.64,0-4.1-1.87-4.1-3.15s1.64-4.22,1.64-4.22a194,194,0,0,0,8.42-18.25s-4.91-3-4.91-7S699.1,435,702,435c3.39,0,9.36,3.74,9.36,6.43,0,2.46-1.75,5.38-1.75,8.43s14.85,4.09,14.85,9c0,3.87-6.78,25.28-6.78,31.95a2.09,2.09,0,0,0,2.1,2.1C723.32,492.91,729.64,483.9,735.38,473.37Z"/><path class="cls-1" d="M161.23,531h9.64a2,2,0,0,1,1.68.74,2.67,2.67,0,0,1,.56,1.65,2.89,2.89,0,0,1-.56,1.71,2,2,0,0,1-1.68.84h-5.36a2.85,2.85,0,0,0-1.68.54,2,2,0,0,0-.77,1.71v5.76a2.73,2.73,0,0,0,.41,1.66,1.56,1.56,0,0,0,1.48.64H169a1.9,1.9,0,0,1,1.66.74,2.78,2.78,0,0,1,.53,1.65,3.05,3.05,0,0,1-.53,1.71,1.86,1.86,0,0,1-1.66.79h-4.18a1.78,1.78,0,0,0-1.25.49,2.12,2.12,0,0,0-.54,1.65v10.82a2.41,2.41,0,0,1-.76,2,2.54,2.54,0,0,1-3.37,0,2.35,2.35,0,0,1-.76-1.91V547.62q0-3.47,0-6.93c0-2.31,0-4.63,0-6.94a2.56,2.56,0,0,1,.86-2.29A3.62,3.62,0,0,1,161.23,531Z"/><path class="cls-1" d="M178.67,547.22V533.45a2.42,2.42,0,0,1,.76-2,2.6,2.6,0,0,1,3.42,0,2.35,2.35,0,0,1,.77,1.91V564a2.43,2.43,0,0,1-.77,1.94,2.52,2.52,0,0,1-3.42,0,2.48,2.48,0,0,1-.76-2Z"/><path class="cls-1" d="M206.64,565.93a1.89,1.89,0,0,1-1.27.69,2.46,2.46,0,0,1-1.51-.38,2.91,2.91,0,0,1-1.17-1.43l-6.94-15.3a1,1,0,0,0-.38-.59.51.51,0,0,0-.43,0,.62.62,0,0,0-.33.31.85.85,0,0,0-.13.43V564.1a2.41,2.41,0,0,1-.77,1.93,2.48,2.48,0,0,1-1.68.67,2.59,2.59,0,0,1-1.71-.67,2.42,2.42,0,0,1-.79-2v-30.5a2.61,2.61,0,0,1,.59-1.79,2.43,2.43,0,0,1,1.4-.81,2.48,2.48,0,0,1,1.63.25,2.61,2.61,0,0,1,1.23,1.48c.47,1.22,1,2.54,1.58,4s1.15,2.86,1.73,4.34,1.15,2.92,1.71,4.33,1.08,2.73,1.56,4a.88.88,0,0,0,.43.43.58.58,0,0,0,.41,0,.76.76,0,0,0,.3-.23.45.45,0,0,0,.13-.31V533.6a2.38,2.38,0,0,1,.79-1.94,2.63,2.63,0,0,1,1.71-.66,2.58,2.58,0,0,1,1.68.63,2.37,2.37,0,0,1,.77,1.92V564.1A2.7,2.7,0,0,1,206.64,565.93Z"/><path class="cls-1" d="M215.9,531.05c1.49,0,2.81,0,3.95,0a14.59,14.59,0,0,1,3.09.3,7.21,7.21,0,0,1,4.05,2.53,15.57,15.57,0,0,1,2.55,4.54,26.49,26.49,0,0,1,1.35,5.38,35.7,35.7,0,0,1,.41,5,35.2,35.2,0,0,1-.41,5,27.17,27.17,0,0,1-1.35,5.38,16,16,0,0,1-2.55,4.59,7.08,7.08,0,0,1-4.05,2.55,15.91,15.91,0,0,1-3.09.33c-1.14,0-2.46,0-3.95,0a5.6,5.6,0,0,1-.89-.1,3.17,3.17,0,0,1-1-.39,2.27,2.27,0,0,1-.82-.81,2.68,2.68,0,0,1-.33-1.41V533.7a2.52,2.52,0,0,1,.33-1.38,2.38,2.38,0,0,1,.82-.79,3.4,3.4,0,0,1,1-.38A4.63,4.63,0,0,1,215.9,531.05Zm10.2,17.75a27.33,27.33,0,0,0-.36-4.47,19.09,19.09,0,0,0-1-3.87,8.69,8.69,0,0,0-1.66-2.73,3,3,0,0,0-2.19-1h-1.38a1.13,1.13,0,0,0-.87.33,2.11,2.11,0,0,0-.46.82,3.4,3.4,0,0,0-.15,1v19.94a3.45,3.45,0,0,0,.15,1,2.15,2.15,0,0,0,.46.81,1.1,1.1,0,0,0,.87.34h1.38a2.93,2.93,0,0,0,2.19-1,9,9,0,0,0,1.66-2.78,19.76,19.76,0,0,0,1-3.9A27.21,27.21,0,0,0,226.1,548.8Z"/><path class="cls-1" d="M256.75,547.06l-1.68-3.26q-1-2-2-3.93c-.68-1.29-1.3-2.44-1.84-3.44s-.87-1.62-1-1.86a2.28,2.28,0,0,1-.2-2.07,2.52,2.52,0,0,1,3-1.53,2.48,2.48,0,0,1,1.58,1.4l3.67,7.14A3,3,0,0,0,260,541c.61.15,1.23-.35,1.84-1.51l3.72-7.24a2.32,2.32,0,0,1,1.53-1.35,2.57,2.57,0,0,1,3,1.56,2.45,2.45,0,0,1-.23,2.09c-.11.24-.42.86-.95,1.86s-1.13,2.13-1.81,3.39-1.36,2.54-2,3.85l-1.68,3.24a8.84,8.84,0,0,0-.61,1.68,6.83,6.83,0,0,0-.26,1.69v13.77a2.35,2.35,0,0,1-.76,1.91,2.6,2.6,0,0,1-1.69.64,2.67,2.67,0,0,1-1.7-.64,2.38,2.38,0,0,1-.8-2V550.38A7,7,0,0,0,256.75,547.06Z"/><path class="cls-1" d="M291.07,557.72a8.84,8.84,0,0,1-1.25,4.87,8.36,8.36,0,0,1-3.08,3,8.82,8.82,0,0,1-8,.1,8.06,8.06,0,0,1-3.11-2.88,9.24,9.24,0,0,1-1.3-4.9c0-1.53-.05-3-.05-4.53v-9.18c0-1.53,0-3.08.05-4.65a9.15,9.15,0,0,1,1.3-4.84,8.06,8.06,0,0,1,3.11-2.88,8.82,8.82,0,0,1,8,.1,8.36,8.36,0,0,1,3.08,3,8.84,8.84,0,0,1,1.25,4.87v18ZM286,548.59v-9.33a3.11,3.11,0,0,0-1.09-2.6,3.63,3.63,0,0,0-2.4-.84,3.47,3.47,0,0,0-2.35,1,3.71,3.71,0,0,0-1,3v17.9a3.71,3.71,0,0,0,1,3,3.43,3.43,0,0,0,2.35,1,3.63,3.63,0,0,0,2.4-.84,3.11,3.11,0,0,0,1.09-2.6Z"/><path class="cls-1" d="M313.41,557.72a9.25,9.25,0,0,1-1.22,4.9,8.15,8.15,0,0,1-3.09,3,8.7,8.7,0,0,1-4,1,8.52,8.52,0,0,1-4-.92,8,8,0,0,1-3.11-2.88,9.14,9.14,0,0,1-1.3-4.89q-.11-6.18-.08-12.24t0-12.24a2.43,2.43,0,0,1,.79-2,2.59,2.59,0,0,1,3.44,0,2.35,2.35,0,0,1,.77,1.91v24.38a4.05,4.05,0,0,0,.43,2.19,3.2,3.2,0,0,0,1.25,1.3,3.38,3.38,0,0,0,5.15-3q0-6.16,0-12.29t0-12.34a2.41,2.41,0,0,1,.79-2,2.64,2.64,0,0,1,3.42,0,2.32,2.32,0,0,1,.79,1.92v12.13Q313.46,551.66,313.41,557.72Z"/><path class="cls-1" d="M319.27,548.8V534.06a3,3,0,0,1,.31-1.33,3.19,3.19,0,0,1,.77-1,3.73,3.73,0,0,1,1-.64,2.08,2.08,0,0,1,1.05-.17h7.44a5.36,5.36,0,0,1,3.11.94,8.43,8.43,0,0,1,2.35,2.47,12.75,12.75,0,0,1,1.5,3.5,18,18,0,0,1,.49,6.6,12.14,12.14,0,0,1-.49,2.14,13,13,0,0,1-.86,2c-.36.66-.79,1.38-1.3,2.16a7.43,7.43,0,0,0-.57,1,5.35,5.35,0,0,0-.38,1.17,3.83,3.83,0,0,0,0,1.35,4.9,4.9,0,0,0,.59,1.53l3.16,7.25a2.25,2.25,0,0,1,.13,2,2.61,2.61,0,0,1-1.28,1.3,2.66,2.66,0,0,1-1.81.12,2.43,2.43,0,0,1-1.53-1.42l-4.64-9.75a2.43,2.43,0,0,0-1.07-1.14,2.13,2.13,0,0,0-1.35-.21,2,2,0,0,0-1.17.72,2.39,2.39,0,0,0-.49,1.6v7.76a2.35,2.35,0,0,1-.76,1.91,2.6,2.6,0,0,1-1.69.64,2.53,2.53,0,0,1-1.68-.67,2.48,2.48,0,0,1-.76-2Zm5-3.32a2.35,2.35,0,0,0,.74,1.71,2.16,2.16,0,0,0,1.81.64h2.09a2.73,2.73,0,0,0,1.69-.54,4.32,4.32,0,0,0,1.19-1.4,6.62,6.62,0,0,0,.72-2,9.46,9.46,0,0,0,.18-2.27,11,11,0,0,0-.33-2.17,6.29,6.29,0,0,0-.82-1.86,4.39,4.39,0,0,0-1.35-1.33,3.52,3.52,0,0,0-1.89-.51h-1.58a2.48,2.48,0,0,0-1.63.64,2.39,2.39,0,0,0-.82,1.81Z"/><path class="cls-1" d="M359.67,536.86a2.87,2.87,0,0,1-.13,2.42,2.77,2.77,0,0,1-1.53,1.25,2.73,2.73,0,0,1-1.89,0,1.94,1.94,0,0,1-1.2-1.58,3.22,3.22,0,0,0-.91-1.53,3.88,3.88,0,0,0-3.27-1,3.59,3.59,0,0,0-1.63.72,3.52,3.52,0,0,0-1.1,1.6,5.59,5.59,0,0,0-.18,2.58,3.54,3.54,0,0,0,.92,1.76,14.79,14.79,0,0,0,1.89,1.71c.75.58,1.55,1.17,2.42,1.78s1.7,1.24,2.5,1.89a19.57,19.57,0,0,1,2.19,2.06,7.2,7.2,0,0,1,1.46,2.38,10.08,10.08,0,0,1,.53,2.73,10.72,10.72,0,0,1-.2,2.77,11.89,11.89,0,0,1-.89,2.66,8.87,8.87,0,0,1-1.53,2.24,9.8,9.8,0,0,1-4.47,2.88,10.26,10.26,0,0,1-5,.31,9.46,9.46,0,0,1-4.46-2.22,8.55,8.55,0,0,1-2.65-4.74,3.09,3.09,0,0,1,.2-2.48,3,3,0,0,1,1.56-1.32,2.63,2.63,0,0,1,1.91,0,2,2,0,0,1,1.23,1.6,5.34,5.34,0,0,0,1.27,2.61,4.16,4.16,0,0,0,2.07,1.24,4.09,4.09,0,0,0,2.34-.12,4.55,4.55,0,0,0,2.12-1.58,4.92,4.92,0,0,0,.94-2.3,6.28,6.28,0,0,0-.12-2.45,4.31,4.31,0,0,0-1.23-1.93,15.28,15.28,0,0,0-2.17-1.69L348,549.46a17.06,17.06,0,0,1-2.58-2,10.09,10.09,0,0,1-2-2.63,8.12,8.12,0,0,1-.92-3.54,10.2,10.2,0,0,1,.87-5,9.06,9.06,0,0,1,2.67-3.37,9.38,9.38,0,0,1,3.75-1.68,9,9,0,0,1,4.06,0,8.3,8.3,0,0,1,3.54,1.86A7.83,7.83,0,0,1,359.67,536.86Z"/><path class="cls-1" d="M368.39,530.84H378a1.9,1.9,0,0,1,1.65.74,2.77,2.77,0,0,1,.54,1.66,2.94,2.94,0,0,1-.56,1.71,2,2,0,0,1-1.63.84h-5.36a2.85,2.85,0,0,0-1.68.54,1.93,1.93,0,0,0-.77,1.71v5.76a2.64,2.64,0,0,0,.41,1.68,1.5,1.5,0,0,0,1.43.61h4.08a2,2,0,0,1,1.68.74,2.66,2.66,0,0,1,.56,1.66,2.87,2.87,0,0,1-.56,1.71,1.87,1.87,0,0,1-1.63.79H372a1.8,1.8,0,0,0-1.25.48,2.05,2.05,0,0,0-.49,1.66,24.38,24.38,0,0,1,0,2.83c0,.94,0,1.9,0,2.88a4.42,4.42,0,0,0,.41,1.86q.4.9,1.89.9H378a1.88,1.88,0,0,1,1.65.74,2.72,2.72,0,0,1,.54,1.65,2.89,2.89,0,0,1-.56,1.71,2,2,0,0,1-1.68.84h-9.64a3.9,3.9,0,0,1-1.69-.3,2.3,2.3,0,0,1-.92-.82,2.9,2.9,0,0,1-.38-1.14,11.26,11.26,0,0,1-.07-1.31V540.59c0-2.32,0-4.63.05-6.94a2.58,2.58,0,0,1,.86-2.3A3.77,3.77,0,0,1,368.39,530.84Z"/><path class="cls-1" d="M390.78,558.84a4.41,4.41,0,0,0,.4,1.86c.28.6.92.9,1.94.9h5.46a2,2,0,0,1,1.68.74,2.61,2.61,0,0,1,.56,1.65,2.82,2.82,0,0,1-.56,1.71,2,2,0,0,1-1.68.84h-9.69a3.52,3.52,0,0,1-1.68-.33,2.26,2.26,0,0,1-1.28-1.93c0-.43-.05-.86-.05-1.31V533.14a2.47,2.47,0,0,1,.77-2,2.5,2.5,0,0,1,1.68-.66,2.58,2.58,0,0,1,1.68.63,2.37,2.37,0,0,1,.77,1.92v25.8Z"/><path class="cls-1" d="M408.47,531h9.64a2,2,0,0,1,1.69.74,2.67,2.67,0,0,1,.56,1.65,2.89,2.89,0,0,1-.56,1.71,2.05,2.05,0,0,1-1.69.84h-5.35a2.88,2.88,0,0,0-1.69.54,1.94,1.94,0,0,0-.76,1.71v5.76a2.66,2.66,0,0,0,.41,1.66,1.55,1.55,0,0,0,1.48.64h4.08a1.88,1.88,0,0,1,1.65.74,2.72,2.72,0,0,1,.54,1.65,3,3,0,0,1-.54,1.71,1.84,1.84,0,0,1-1.65.79H412.1a1.76,1.76,0,0,0-1.25.49,2.12,2.12,0,0,0-.54,1.65v10.82a2.39,2.39,0,0,1-.77,2,2.52,2.52,0,0,1-3.36,0,2.35,2.35,0,0,1-.77-1.91V547.62c0-2.31,0-4.62,0-6.93s0-4.63,0-6.94a2.54,2.54,0,0,1,.87-2.29A3.61,3.61,0,0,1,408.47,531Z"/><path class="cls-1" d="M452.64,534.11,457,552.47l2.66,11.47a2,2,0,0,1-.41,1.79,2.65,2.65,0,0,1-1.51.89,2.52,2.52,0,0,1-1.76-.3,2.32,2.32,0,0,1-1.07-1.76l-.46-2.4a3,3,0,0,0-.71-1.46,1.85,1.85,0,0,0-1.58-.58H447a3.11,3.11,0,0,0-1.53.3,2.32,2.32,0,0,0-1.12,1.59l-.92,3.06a1.88,1.88,0,0,1-1.1,1.37,2.65,2.65,0,0,1-1.68.16,2.43,2.43,0,0,1-1.4-1,2.31,2.31,0,0,1-.31-2l7-29.53a4.45,4.45,0,0,1,1.48-2.47,3,3,0,0,1,4.05.12A3.89,3.89,0,0,1,452.64,534.11Zm-4.39,10.66c-.27,1.36-.52,2.7-.76,4s-.5,2.65-.77,4a1.89,1.89,0,0,0,.13,1.28,1.22,1.22,0,0,0,1.2.56H451a1.14,1.14,0,0,0,1.17-.59,2,2,0,0,0,.1-1.25l-1.73-8a1.43,1.43,0,0,0-.41-.79,1.17,1.17,0,0,0-.64-.33.89.89,0,0,0-.69.22A1.58,1.58,0,0,0,448.25,544.77Z"/><path class="cls-1" d="M467,547.37l-.05-8.88c0-.91-.28-1.5-.74-1.75a3.14,3.14,0,0,0-1.71-.34h-2.29a2.32,2.32,0,0,1-1.94-.84,3,3,0,0,1-.67-1.86,3.17,3.17,0,0,1,.64-1.89,2.3,2.3,0,0,1,2-.86h14.53a2.3,2.3,0,0,1,2,.84,3,3,0,0,1,0,3.72,2.24,2.24,0,0,1-1.91.84l-2.91,0a2.05,2.05,0,0,0-1.55.39,2.43,2.43,0,0,0-.43,1.7v25.56a2.35,2.35,0,0,1-.77,1.91,2.54,2.54,0,0,1-3.37,0,2.45,2.45,0,0,1-.76-2Z"/><path class="cls-1" d="M502.41,543.24a2.9,2.9,0,0,0,.49,1.78,1.69,1.69,0,0,0,1.5.82h3.47a1.65,1.65,0,0,0,1.45-.79,3.14,3.14,0,0,0,.54-1.81V533.5a2.48,2.48,0,0,1,.77-2,2.53,2.53,0,0,1,1.68-.67,2.6,2.6,0,0,1,1.68.64,2.35,2.35,0,0,1,.77,1.91v30.66A2.35,2.35,0,0,1,514,566a2.6,2.6,0,0,1-1.68.64,2.53,2.53,0,0,1-1.68-.67,2.48,2.48,0,0,1-.77-2V553.69a2.37,2.37,0,0,0-.71-1.76,2.09,2.09,0,0,0-1.38-.58h-3.32a2,2,0,0,0-1.37.61,2.31,2.31,0,0,0-.67,1.78v10.2a2.43,2.43,0,0,1-.79,2,2.52,2.52,0,0,1-3.39,0,2.35,2.35,0,0,1-.76-1.91V533.39a2.35,2.35,0,0,1,.76-1.91,2.63,2.63,0,0,1,1.71-.64,2.56,2.56,0,0,1,1.71.67,2.48,2.48,0,0,1,.76,2Z"/><path class="cls-1" d="M537.2,557.72a8.92,8.92,0,0,1-1.25,4.87,8.59,8.59,0,0,1-11.12,3.06,8,8,0,0,1-3.11-2.88,9.07,9.07,0,0,1-1.3-4.9c0-1.53,0-3,0-4.53v-9.18c0-1.53,0-3.08,0-4.65a9,9,0,0,1,1.3-4.84,8,8,0,0,1,3.11-2.88A8.45,8.45,0,0,1,536,534.85a8.92,8.92,0,0,1,1.25,4.87v18Zm-5.05-9.13v-9.33a3.11,3.11,0,0,0-1.1-2.6,3.63,3.63,0,0,0-2.4-.84,3.45,3.45,0,0,0-2.34,1,3.72,3.72,0,0,0-1,3v17.9a3.72,3.72,0,0,0,1,3,3.4,3.4,0,0,0,2.34,1,3.63,3.63,0,0,0,2.4-.84,3.11,3.11,0,0,0,1.1-2.6Z"/><path class="cls-1" d="M542.86,547.27V533.5a2.61,2.61,0,0,1,.58-1.79,2.42,2.42,0,0,1,1.41-.81,2.39,2.39,0,0,1,1.6.25,2.79,2.79,0,0,1,1.25,1.43l5.15,12.49c.55,1.23,1,1.87,1.48,1.92s.94-.62,1.48-2l5-12.24a2.9,2.9,0,0,1,1.25-1.55,2.53,2.53,0,0,1,1.55-.34,2.46,2.46,0,0,1,1.38.69,2.28,2.28,0,0,1,.71,1.46v31a2.48,2.48,0,0,1-.76,2,2.53,2.53,0,0,1-1.68.67,2.6,2.6,0,0,1-1.69-.64,2.35,2.35,0,0,1-.76-1.91V549.82a1.65,1.65,0,0,0-.13-1,.57.57,0,0,0-.43-.3.72.72,0,0,0-.51.15,1,1,0,0,0-.36.48c-.48,1.2-.92,2.27-1.33,3.22s-.85,2-1.32,3.16a3,3,0,0,1-1,1.38,2.61,2.61,0,0,1-1.38.48,2.39,2.39,0,0,1-1.4-.41,2.7,2.7,0,0,1-1-1.35l-2.6-6.32a1,1,0,0,0-.48-.61.64.64,0,0,0-.51,0,.72.72,0,0,0-.36.35,1.15,1.15,0,0,0-.13.46v14.49A2.35,2.35,0,0,1,547,566a2.63,2.63,0,0,1-1.71.64,2.56,2.56,0,0,1-1.71-.67,2.48,2.48,0,0,1-.76-2Z"/><path class="cls-1" d="M574.22,530.84h9.64a1.92,1.92,0,0,1,1.66.74,2.83,2.83,0,0,1,.53,1.66,2.87,2.87,0,0,1-.56,1.71,2,2,0,0,1-1.63.84h-5.35a2.86,2.86,0,0,0-1.69.54,1.92,1.92,0,0,0-.76,1.71v5.76a2.58,2.58,0,0,0,.41,1.68,1.49,1.49,0,0,0,1.42.61H582a2,2,0,0,1,1.69.74,2.72,2.72,0,0,1,.56,1.66,2.94,2.94,0,0,1-.56,1.71A1.88,1.88,0,0,1,582,551h-4.23a1.81,1.81,0,0,0-1.25.48,2,2,0,0,0-.48,1.66,26.82,26.82,0,0,1,.05,2.83c0,.94-.05,1.9-.05,2.88a4.28,4.28,0,0,0,.41,1.86c.27.6.9.9,1.88.9h5.51a1.9,1.9,0,0,1,1.66.74,2.78,2.78,0,0,1,.53,1.65,2.82,2.82,0,0,1-.56,1.71,2,2,0,0,1-1.68.84h-9.64a3.89,3.89,0,0,1-1.68-.3,2.18,2.18,0,0,1-.92-.82,2.9,2.9,0,0,1-.38-1.14,11.24,11.24,0,0,1-.08-1.31V540.59q0-3.48,0-6.94a2.56,2.56,0,0,1,.87-2.3A3.75,3.75,0,0,1,574.22,530.84Z"/></g><g id="horizontal_lines" data-name="horizontal lines"><line id="top" class="cls-2" x1="3.9" y1="386.4" x2="746" y2="386.4"/><line id="bottom" class="cls-2" x1="3" y1="598.07" x2="746" y2="598.07"/></g><g id="logo"><g id="logo-2" data-name="logo"><path id="triangle_inside" data-name="triangle inside" class="cls-3" d="M226.61,386.2l-100-97a10.47,10.47,0,0,1,0-14.8l244-244a10.44,10.44,0,0,1,14.77,0l244,244a10.46,10.46,0,0,1,0,14.76l-97.07,97-3.54-3.54,97.07-97a5.47,5.47,0,0,0,0-7.7L381.8,34a5.46,5.46,0,0,0-7.7,0l-244,244a5.45,5.45,0,0,0,0,7.71l100,96.94Z"/><path id="triangle_outside" data-name="triangle outside" class="cls-3" d="M198.05,386.9l-98.3-96.39a12.28,12.28,0,0,1,0-17.39L369.26,3.59a12.29,12.29,0,0,1,17.37,0L656.17,273.14a12.3,12.3,0,0,1,0,17.35l-93.91,96.35-5-4.88,93.93-96.39a5.29,5.29,0,0,0,0-7.49L381.68,8.54a5.28,5.28,0,0,0-7.47,0L104.68,278.07a5.28,5.28,0,0,0,0,7.47L203,381.9Z"/><path id="sun" class="cls-3" d="M340.12,185.68a48.58,48.58,0,0,1-8.35-27.42c0-26.12,20.3-47.36,45.25-47.36s45.25,21.24,45.25,47.36A48.64,48.64,0,0,1,414,185.63l-4.14-2.81a43.61,43.61,0,0,0,7.45-24.56c0-23.36-18.06-42.36-40.25-42.36s-40.25,19-40.25,42.36a43.65,43.65,0,0,0,7.48,24.61Z"/><g id="river"><path class="cls-3" d="M327.36,328.27H238.91a3,3,0,1,1,0-6h88.45a3,3,0,0,1,0,6Z"/><path class="cls-3" d="M337.77,346.84H272.44a3,3,0,0,1,0-6h65.33a3,3,0,0,1,0,6Z"/><path class="cls-3" d="M406.31,346.84h-50.5a3,3,0,0,1,0-6h50.5a3,3,0,0,1,0,6Z"/><path class="cls-3" d="M509.68,328.27H341.34a3,3,0,1,1,0-6H509.68a3,3,0,0,1,0,6Z"/><path class="cls-3" d="M484.18,346.84H428.34a3,3,0,0,1,0-6h55.84a3,3,0,0,1,0,6Z"/><path class="cls-3" d="M370.44,366.19H305.11a3,3,0,0,1,0-6h65.33a3,3,0,0,1,0,6Z"/><path class="cls-3" d="M450.46,366.19H385.13a3,3,0,0,1,0-6h65.33a3,3,0,0,1,0,6Z"/></g><g id="Left_trees" data-name="Left trees"><path class="cls-3" d="M493,309.19a1.44,1.44,0,0,0-.17,2,1.42,1.42,0,0,0,2,.17l3.05-2.57v12.58a1.43,1.43,0,0,0,2.85,0V308.8l3,2.57a1.42,1.42,0,0,0,2-.17,1.43,1.43,0,0,0-.17-2l-4.88-4.12v-3.21l3,2.57a1.42,1.42,0,0,0,2-.17,1.43,1.43,0,0,0-.17-2l-4.88-4.12v-3.21l3,2.57a1.44,1.44,0,0,0,2-.17,1.43,1.43,0,0,0-.17-2l-5.39-4.55a1.42,1.42,0,0,0-1.84,0L493,295.31a1.43,1.43,0,1,0,1.84,2.18l3.05-2.57v3.21L493,302.25a1.43,1.43,0,1,0,1.84,2.18l3.05-2.57v3.21Z"/><path class="cls-3" d="M467.3,305.52a1.81,1.81,0,1,0,2.34,2.77L473.5,305v16a1.81,1.81,0,0,0,3.62,0V305l3.86,3.26a1.85,1.85,0,0,0,1.17.42,1.81,1.81,0,0,0,1.17-3.19l-6.2-5.24v-4.07l3.86,3.26a1.81,1.81,0,1,0,2.34-2.77l-6.2-5.23v-4.08l3.86,3.26a1.81,1.81,0,1,0,2.34-2.77l-6.84-5.77a1.81,1.81,0,0,0-2.34,0l-6.84,5.77a1.81,1.81,0,1,0,2.34,2.77l3.86-3.26v4.08l-6.2,5.23a1.81,1.81,0,1,0,2.34,2.77l3.86-3.26v4.07Z"/><path class="cls-3" d="M446.56,309.19a1.43,1.43,0,1,0,1.84,2.18l3-2.57v12.58a1.43,1.43,0,0,0,2.86,0V308.8l3,2.57a1.42,1.42,0,0,0,2-.17,1.43,1.43,0,0,0-.17-2l-4.88-4.12v-3.21l3,2.57a1.42,1.42,0,0,0,2-.17,1.43,1.43,0,0,0-.17-2l-4.88-4.12v-3.21l3,2.57a1.44,1.44,0,0,0,2-.17,1.43,1.43,0,0,0-.17-2l-5.39-4.55a1.42,1.42,0,0,0-1.84,0l-5.39,4.55a1.43,1.43,0,1,0,1.84,2.18l3-2.57v3.21l-4.88,4.12a1.43,1.43,0,1,0,1.84,2.18l3-2.57v3.21Z"/></g><g id="Right_tree" data-name="Right tree"><path class="cls-3" d="M401.1,307.66a1.59,1.59,0,1,0,2,2.42l3.38-2.85v14a1.59,1.59,0,0,0,3.18,0v-14l3.38,2.85a1.59,1.59,0,1,0,2.05-2.42l-5.43-4.59V299.5l3.38,2.86a1.58,1.58,0,0,0,1,.37,1.59,1.59,0,0,0,1-2.8l-5.43-4.59v-3.57l3.38,2.86a1.58,1.58,0,0,0,1,.37,1.59,1.59,0,0,0,1-2.8l-6-5.06a1.59,1.59,0,0,0-2.05,0l-6,5.06a1.59,1.59,0,1,0,2,2.43l3.38-2.86v3.57l-5.43,4.59a1.59,1.59,0,1,0,2,2.43l3.38-2.86v3.57Z"/><path class="cls-3" d="M372.45,303.57a2,2,0,0,0,2.6,3.08l4.3-3.63v17.77a2,2,0,0,0,4,0V303l4.3,3.63a2,2,0,1,0,2.6-3.08l-6.9-5.83v-4.53l4.3,3.63a2,2,0,1,0,2.6-3.08l-6.9-5.83v-4.54l4.3,3.63a2,2,0,0,0,2.6-3.08l-7.61-6.43a2,2,0,0,0-2.6,0l-7.62,6.43a2,2,0,1,0,2.6,3.08l4.3-3.63v4.54l-6.9,5.83a2,2,0,0,0,2.6,3.08l4.3-3.63v4.53Z"/><path class="cls-3" d="M349.37,307.66a1.59,1.59,0,0,0,2.05,2.42l3.39-2.85v14a1.59,1.59,0,0,0,3.17,0v-14l3.39,2.85a1.57,1.57,0,0,0,1,.38,1.55,1.55,0,0,0,1.21-.57,1.57,1.57,0,0,0-.19-2.23L358,303.07V299.5l3.39,2.86a1.59,1.59,0,0,0,2.23-.19,1.59,1.59,0,0,0-.19-2.24L358,295.34v-3.57l3.39,2.86a1.59,1.59,0,0,0,2.23-.19,1.59,1.59,0,0,0-.19-2.24l-6-5.06a1.59,1.59,0,0,0-2.05,0l-6,5.06a1.59,1.59,0,0,0,2.05,2.43l3.39-2.86v3.57l-5.44,4.59a1.59,1.59,0,0,0,2.05,2.43l3.39-2.86v3.57Z"/></g><g id="Right_tree-2" data-name="Right tree"><path class="cls-3" d="M298.7,307.15a1.7,1.7,0,1,0,2.19,2.59l3.61-3.05v14.95a1.7,1.7,0,0,0,3.39,0V306.69l3.62,3.05a1.69,1.69,0,0,0,1.09.4,1.67,1.67,0,0,0,1.3-.6,1.7,1.7,0,0,0-.2-2.39l-5.81-4.9v-3.82l3.62,3.06a1.75,1.75,0,0,0,1.09.4,1.68,1.68,0,0,0,1.3-.61,1.7,1.7,0,0,0-.2-2.39l-5.81-4.9v-3.82l3.62,3.06a1.7,1.7,0,0,0,2.19-2.59l-6.41-5.41a1.68,1.68,0,0,0-2.19,0l-6.4,5.41a1.69,1.69,0,0,0-.2,2.39,1.7,1.7,0,0,0,2.39.2l3.61-3.06V294l-5.8,4.9a1.7,1.7,0,0,0,2.19,2.6l3.61-3.06v3.82Z"/><path class="cls-3" d="M268.09,302.78a2.15,2.15,0,1,0,2.77,3.29l4.6-3.88v19a2.15,2.15,0,1,0,4.3,0v-19l4.6,3.88a2.15,2.15,0,0,0,2.78-3.29l-7.38-6.22v-4.85l4.6,3.88a2.14,2.14,0,0,0,1.39.5,2.11,2.11,0,0,0,1.64-.76,2.14,2.14,0,0,0-.25-3l-7.38-6.23v-4.85l4.6,3.88a2.15,2.15,0,0,0,1.39.51,2.12,2.12,0,0,0,1.64-.77,2.14,2.14,0,0,0-.25-3L279,274.94a2.15,2.15,0,0,0-2.78,0l-8.13,6.87a2.15,2.15,0,0,0,2.77,3.29l4.6-3.88v4.85l-7.37,6.23a2.15,2.15,0,1,0,2.77,3.29l4.6-3.88v4.85Z"/><path class="cls-3" d="M243.43,307.15a1.69,1.69,0,1,0,2.18,2.59l3.62-3.05v14.95a1.7,1.7,0,0,0,3.39,0V306.69l3.62,3.05a1.7,1.7,0,0,0,2.19-2.59l-5.81-4.9v-3.82l3.62,3.06a1.75,1.75,0,0,0,1.09.4,1.7,1.7,0,0,0,1.1-3l-5.81-4.9v-3.82l3.62,3.06a1.69,1.69,0,0,0,1.09.4,1.73,1.73,0,0,0,1.3-.6,1.7,1.7,0,0,0-.2-2.39L252,285.23a1.68,1.68,0,0,0-2.19,0l-6.4,5.41a1.69,1.69,0,1,0,2.18,2.59l3.62-3.06V294l-5.8,4.9a1.7,1.7,0,0,0,2.18,2.6l3.62-3.06v3.82Z"/></g><g id="hills"><path class="cls-3" d="M627.55,284.18h-79.9a2.5,2.5,0,0,1-1.72-.69l-75.27-71.93-58.19,58.19a2.5,2.5,0,0,1-3.54-3.53l59.92-59.92a2.51,2.51,0,0,1,3.5,0l76.31,72.92h78.89a2.5,2.5,0,0,1,0,5Z"/><path class="cls-3" d="M430.39,263.22a2.49,2.49,0,0,1-1.77-4.26l13.66-13.73a2.5,2.5,0,1,1,3.55,3.53l-13.66,13.73A2.5,2.5,0,0,1,430.39,263.22Z"/><path class="cls-3" d="M509.35,259.66a2.48,2.48,0,0,1-1.75-.71l-9.12-8.89a2.5,2.5,0,0,1,3.49-3.58l9.12,8.89a2.5,2.5,0,0,1-1.74,4.29Z"/><path class="cls-3" d="M491.58,242.32a2.44,2.44,0,0,1-1.74-.71l-17.28-16.83a2.52,2.52,0,0,1,0-3.54,2.49,2.49,0,0,1,3.53,0L493.33,238a2.5,2.5,0,0,1-1.75,4.29Z"/><path class="cls-3" d="M193,284.8H128.37a2.5,2.5,0,0,1,0-5H192l76.31-72.92a2.51,2.51,0,0,1,3.5,0l59.91,59.91a2.5,2.5,0,1,1-3.53,3.54L270,212.18l-75.27,71.93A2.52,2.52,0,0,1,193,284.8Z"/><path class="cls-3" d="M291.19,232a2.5,2.5,0,0,1-1.66-4.37l87.59-77.79a2.49,2.49,0,0,1,3.38.05l75.92,72a2.5,2.5,0,0,1-3.44,3.63l-74.25-70.46-85.88,76.27A2.45,2.45,0,0,1,291.19,232Z"/><path class="cls-3" d="M314,225.74a2.51,2.51,0,0,1-1.77-4.27l13.69-13.7a2.5,2.5,0,1,1,3.54,3.54L315.78,225A2.46,2.46,0,0,1,314,225.74Z"/><path class="cls-3" d="M335.25,206.84a2.5,2.5,0,0,1-1.65-4.38L367,173a2.5,2.5,0,0,1,3.31,3.75l-33.35,29.43A2.51,2.51,0,0,1,335.25,206.84Z"/><path class="cls-3" d="M310.3,263.84a2.49,2.49,0,0,1-1.77-.73l-13.66-13.73a2.5,2.5,0,1,1,3.54-3.53l13.66,13.73a2.49,2.49,0,0,1-1.77,4.26Z"/><path class="cls-3" d="M231.35,260.28A2.5,2.5,0,0,1,229.6,256l9.12-8.89a2.5,2.5,0,1,1,3.49,3.58l-9.12,8.89A2.44,2.44,0,0,1,231.35,260.28Z"/><path class="cls-3" d="M249.11,242.94a2.5,2.5,0,0,1-1.74-4.29l17.27-16.83a2.5,2.5,0,1,1,3.49,3.58l-17.27,16.83A2.48,2.48,0,0,1,249.11,242.94Z"/></g></g></g></g></svg>